<?xml version="1.0" encoding="UTF-8"?>
<!DOCTYPE svg PUBLIC "-//W3C//DTD SVG 1.1//EN" "http://www.w3.org/Graphics/SVG/1.1/DTD/svg11.dtd">
<svg xmlns="http://www.w3.org/2000/svg" version="1.1" width="500px" height="562px" style="shape-rendering:geometricPrecision; text-rendering:geometricPrecision; image-rendering:optimizeQuality; fill-rule:evenodd; clip-rule:evenodd" xmlns:xlink="http://www.w3.org/1999/xlink">
<g><path style="opacity:1" fill="#ec9231" d="M 261.5,34.5 C 273.189,37.2298 284.523,41.0632 295.5,46C 351.294,71.0397 402.961,102.373 450.5,140C 459.5,147.32 465.667,156.487 469,167.5C 473.731,189.245 476.231,211.245 476.5,233.5C 476.793,242.708 476.46,251.875 475.5,261C 475.741,265.275 476.741,269.108 478.5,272.5C 478.5,277.167 478.5,281.833 478.5,286.5C 477.016,290.879 475.349,295.379 473.5,300C 476.138,308.966 477.138,318.132 476.5,327.5C 476.271,345.019 474.605,362.352 471.5,379.5C 470.252,380.334 469.585,381.667 469.5,383.5C 468.947,386.817 468.614,390.15 468.5,393.5C 465.606,404.587 459.606,413.753 450.5,421C 436.847,432.487 422.514,442.987 407.5,452.5C 406.791,451.596 405.791,451.263 404.5,451.5C 404.657,450.127 404.49,448.793 404,447.5C 402.5,449 401,450.5 399.5,452C 400.357,452.689 401.023,453.522 401.5,454.5C 398.358,456.119 395.024,457.119 391.5,457.5C 391.5,459.167 391.5,460.833 391.5,462.5C 359.526,483.325 325.859,501.325 290.5,516.5C 288.473,516.338 286.473,516.505 284.5,517C 283.748,517.671 283.414,518.504 283.5,519.5C 277.715,522.095 271.715,524.095 265.5,525.5C 262.011,522.661 259.344,523.327 257.5,527.5C 252.167,528.833 246.833,528.833 241.5,527.5C 241.762,526.022 241.429,524.689 240.5,523.5C 239.452,524.383 238.285,525.05 237,525.5C 234.901,524.713 232.734,524.38 230.5,524.5C 206.381,516.277 183.048,506.11 160.5,494C 120.777,473.151 83.4437,448.818 48.5,421C 33.7626,408.324 26.4293,392.157 26.5,372.5C 26.8318,362.81 26.4984,353.144 25.5,343.5C 24.5832,342.873 23.5832,342.539 22.5,342.5C 21.7101,321.84 21.0435,301.173 20.5,280.5C 20.7401,259.306 21.7401,238.306 23.5,217.5C 25.4612,210.913 26.1279,203.913 25.5,196.5C 26.1196,182.689 28.9529,169.356 34,156.5C 41.5,146.333 50.3333,137.5 60.5,130C 106.621,96.257 155.954,67.5904 208.5,44C 217.889,39.9257 227.556,36.7591 237.5,34.5C 240.532,34.495 243.532,34.1616 246.5,33.5C 248.677,34.2456 250.677,35.2456 252.5,36.5C 255.306,34.9362 258.306,34.2695 261.5,34.5 Z"/></g>
<g><path style="opacity:0.661" fill="#dc9541" d="M 312.5,30.5 C 315.48,31.3234 318.147,32.6567 320.5,34.5C 318.473,34.6621 316.473,34.4955 314.5,34C 313.177,33.1841 312.511,32.0174 312.5,30.5 Z"/></g>
<g><path style="opacity:1" fill="#eb9232" d="M 312.5,30.5 C 312.511,32.0174 313.177,33.1841 314.5,34C 316.473,34.4955 318.473,34.6621 320.5,34.5C 369.855,57.8216 415.855,86.1549 458.5,119.5C 457.694,120.868 456.694,122.201 455.5,123.5C 457.197,124.364 458.363,125.697 459,127.5C 461.518,125.972 463.685,126.306 465.5,128.5C 464.395,129.892 463.061,131.059 461.5,132C 464.767,131.937 466.934,133.437 468,136.5C 468.483,135.552 468.649,134.552 468.5,133.5C 471.5,133.833 473.167,135.5 473.5,138.5C 472.325,138.281 471.325,138.614 470.5,139.5C 472.296,140.141 473.796,141.141 475,142.5C 476.049,140.893 477.549,140.227 479.5,140.5C 482.997,144.148 485.497,148.481 487,153.5C 489.787,161.979 491.62,170.646 492.5,179.5C 492.162,181.854 491.662,184.187 491,186.5C 490.167,185.5 489.333,184.5 488.5,183.5C 488.167,184 487.833,184.5 487.5,185C 488.953,186.783 489.953,188.783 490.5,191C 489.614,193.808 489.447,196.641 490,199.5C 491.33,200.582 492.83,201.249 494.5,201.5C 494.833,201.5 495.167,201.5 495.5,201.5C 497.343,213.952 498.343,226.619 498.5,239.5C 497.566,240.568 497.232,241.901 497.5,243.5C 494.833,243.5 492.167,243.5 489.5,243.5C 488.858,240.865 488.191,238.198 487.5,235.5C 489.449,230.837 490.115,226.171 489.5,221.5C 485.457,221.147 483.79,219.147 484.5,215.5C 482.783,216.668 482.116,218.335 482.5,220.5C 481.833,219.5 481.167,218.5 480.5,217.5C 480.5,217.167 480.5,216.833 480.5,216.5C 481.167,216.5 481.5,216.167 481.5,215.5C 483.03,214.933 484.53,214.267 486,213.5C 485.871,210.261 486.038,207.094 486.5,204C 486.415,202.893 486.081,201.893 485.5,201C 483.414,200.685 481.414,200.185 479.5,199.5C 477.981,183.744 474.481,168.41 469,153.5C 459.119,141.619 447.953,131.119 435.5,122C 390.198,89.5014 341.865,61.8348 290.5,39C 279.773,34.5355 268.773,30.8688 257.5,28C 249.354,27.009 241.354,27.6756 233.5,30C 197.959,42.7712 163.959,58.7712 131.5,78C 108.811,91.2075 86.8106,105.374 65.5,120.5C 64.8829,118.32 63.8829,116.32 62.5,114.5C 63.2483,112.584 63.2483,110.584 62.5,108.5C 66.9453,108.137 69.2786,105.803 69.5,101.5C 66.6703,101.694 64.0037,102.361 61.5,103.5C 111.765,66.523 166.432,37.023 225.5,15C 237.251,10.7062 249.251,9.70623 261.5,12C 279.14,16.4904 296.14,22.657 312.5,30.5 Z"/></g>
<g><path style="opacity:1" fill="#e59146" d="M 261.5,34.5 C 258.306,34.2695 255.306,34.9362 252.5,36.5C 250.677,35.2456 248.677,34.2456 246.5,33.5C 243.532,34.1616 240.532,34.495 237.5,34.5C 245.5,31.8333 253.5,31.8333 261.5,34.5 Z"/></g>
<g><path style="opacity:1" fill="#e6962b" d="M 458.5,119.5 C 466.5,125.5 473.5,132.5 479.5,140.5C 477.549,140.227 476.049,140.893 475,142.5C 473.796,141.141 472.296,140.141 470.5,139.5C 471.325,138.614 472.325,138.281 473.5,138.5C 473.167,135.5 471.5,133.833 468.5,133.5C 468.649,134.552 468.483,135.552 468,136.5C 466.934,133.437 464.767,131.937 461.5,132C 463.061,131.059 464.395,129.892 465.5,128.5C 463.685,126.306 461.518,125.972 459,127.5C 458.363,125.697 457.197,124.364 455.5,123.5C 456.694,122.201 457.694,120.868 458.5,119.5 Z"/></g>
<g><path style="opacity:1" fill="#f7eaca" d="M 280.5,141.5 C 239.82,141.214 199.153,141.547 158.5,142.5C 160.148,141.073 162.148,140.24 164.5,140C 202.167,139.333 239.833,139.333 277.5,140C 278.737,140.232 279.737,140.732 280.5,141.5 Z"/></g>
<g><path style="opacity:1" fill="#fefefe" d="M 280.5,141.5 C 281.833,141.5 283.167,141.5 284.5,141.5C 287.54,143.346 290.873,144.679 294.5,145.5C 294.833,145.5 295.167,145.5 295.5,145.5C 297.612,147.771 300.279,149.104 303.5,149.5C 303.5,149.833 303.5,150.167 303.5,150.5C 304.242,152.426 305.242,154.259 306.5,156C 309.425,157.443 312.425,158.609 315.5,159.5C 315.857,164.506 318.191,168.173 322.5,170.5C 322.737,173.647 323.57,176.647 325,179.5C 325.5,206.831 325.667,234.165 325.5,261.5C 323.72,267.056 320.887,272.056 317,276.5C 316.495,278.518 315.995,280.518 315.5,282.5C 315.5,282.833 315.5,283.167 315.5,283.5C 312.568,284.8 310.234,286.8 308.5,289.5C 304.101,292.366 299.434,294.699 294.5,296.5C 293.127,296.343 291.793,296.51 290.5,297C 290.793,300.519 292.293,303.353 295,305.5C 295.186,309.516 295.186,313.516 295,317.5C 295.333,317.833 295.667,318.167 296,318.5C 297.417,316.602 298.917,314.936 300.5,313.5C 300.643,315.262 300.309,316.929 299.5,318.5C 300.689,319.429 302.022,319.762 303.5,319.5C 305.95,321.629 307.617,324.296 308.5,327.5C 307.907,330.596 308.907,332.929 311.5,334.5C 312.167,336.833 312.833,339.167 313.5,341.5C 314.7,342.292 316.033,342.292 317.5,341.5C 317.5,341.833 317.5,342.167 317.5,342.5C 317.786,344.277 318.453,345.944 319.5,347.5C 319.392,348.442 319.059,349.275 318.5,350C 320.247,350.352 321.914,350.852 323.5,351.5C 324.737,352.965 325.737,354.632 326.5,356.5C 327.105,359.127 327.605,361.793 328,364.5C 330.906,366.984 333.406,369.651 335.5,372.5C 335.833,372.5 336.167,372.5 336.5,372.5C 336.337,374.857 336.503,377.19 337,379.5C 339.613,381.369 341.779,383.703 343.5,386.5C 345.242,390.567 347.075,394.567 349,398.5C 349.495,400.473 349.662,402.473 349.5,404.5C 348.833,406.167 348.167,407.833 347.5,409.5C 344.598,410.578 341.598,411.244 338.5,411.5C 338.228,415.664 335.894,417.497 331.5,417C 332.056,417.383 332.389,417.883 332.5,418.5C 331.791,419.404 330.791,419.737 329.5,419.5C 325.434,419.693 321.434,419.36 317.5,418.5C 311.578,411.667 306.911,404 303.5,395.5C 301.642,392.369 302.309,389.869 305.5,388C 302.897,386.064 301.064,383.564 300,380.5C 299,381.167 298,381.833 297,382.5C 295.693,380.808 294.193,379.475 292.5,378.5C 291.89,377.609 291.557,376.609 291.5,375.5C 288.266,369.694 286.099,363.694 285,357.5C 283.416,356.139 281.582,355.472 279.5,355.5C 278.833,355.167 278.167,354.833 277.5,354.5C 277.34,352.847 276.674,351.514 275.5,350.5C 275.573,348.973 274.906,347.973 273.5,347.5C 273.167,346.833 272.833,346.167 272.5,345.5C 270.319,342.472 268.653,339.139 267.5,335.5C 267.005,333.518 266.505,331.518 266,329.5C 263.556,327.153 262.556,324.486 263,321.5C 262,320.167 261,318.833 260,317.5C 259.667,317.833 259.333,318.167 259,318.5C 258.29,314.628 256.123,312.295 252.5,311.5C 251.89,310.609 251.557,309.609 251.5,308.5C 251.007,306.194 250.674,303.861 250.5,301.5C 238.866,300.73 227.199,300.23 215.5,300C 216.292,298.095 216.292,295.929 215.5,293.5C 211.589,297.647 209.922,296.647 210.5,290.5C 211.076,284.507 211.576,278.507 212,272.5C 213.045,271.627 213.878,270.627 214.5,269.5C 232.647,268.886 250.647,268.22 268.5,267.5C 268.833,267.5 269.167,267.5 269.5,267.5C 275.132,267.692 279.132,265.359 281.5,260.5C 281.328,259.508 281.662,258.842 282.5,258.5C 286.402,260.095 287.402,258.928 285.5,255C 285.468,253.029 286.302,251.529 288,250.5C 288.829,232.329 288.662,214.329 287.5,196.5C 287.977,193.083 286.977,190.416 284.5,188.5C 284.5,188.167 284.5,187.833 284.5,187.5C 285.155,180.784 282.155,177.451 275.5,177.5C 274.833,177.5 274.167,177.5 273.5,177.5C 273.5,176.833 273.167,176.5 272.5,176.5C 271.631,174.283 271.298,171.95 271.5,169.5C 267.5,169.5 263.5,169.5 259.5,169.5C 259.5,170.833 259.5,172.167 259.5,173.5C 258.5,173.5 257.5,173.5 256.5,173.5C 256.5,172.167 256.5,170.833 256.5,169.5C 251.238,169.195 246.072,169.529 241,170.5C 235.773,168.013 230.44,168.013 225,170.5C 222.422,169.859 219.755,169.525 217,169.5C 214.05,169.568 211.383,170.234 209,171.5C 208.5,171 208,170.5 207.5,170C 202.845,169.501 198.179,169.334 193.5,169.5C 193.714,173.257 192.714,173.924 190.5,171.5C 189.833,172.167 189.167,172.833 188.5,173.5C 187.833,251.167 187.167,328.833 186.5,406.5C 184.279,408.693 182.946,411.36 182.5,414.5C 181.5,415.167 180.5,415.833 179.5,416.5C 173.193,417.664 166.859,417.831 160.5,417C 156.973,414.638 153.973,411.804 151.5,408.5C 150.778,408.082 150.278,407.416 150,406.5C 149.5,322.167 149.333,237.834 149.5,153.5C 149.343,152.127 149.51,150.793 150,149.5C 151.805,145.857 154.638,143.524 158.5,142.5C 199.153,141.547 239.82,141.214 280.5,141.5 Z"/></g>
<g><path style="opacity:1" fill="#e1a15e" d="M 284.5,141.5 C 288.775,140.75 292.109,142.083 294.5,145.5C 290.873,144.679 287.54,143.346 284.5,141.5 Z"/></g>
<g><path style="opacity:1" fill="#dfa86b" d="M 295.5,145.5 C 298.71,145.87 301.377,147.203 303.5,149.5C 300.279,149.104 297.612,147.771 295.5,145.5 Z"/></g>
<g><path style="opacity:1" fill="#dd994e" d="M 304.5,150.5 C 307.394,150.556 310.061,151.39 312.5,153C 315.474,156.128 317.807,159.628 319.5,163.5C 318.167,162.167 316.833,160.833 315.5,159.5C 312.101,156.094 308.435,153.094 304.5,150.5 Z"/></g>
<g><path style="opacity:1" fill="#fff8de" d="M 303.5,150.5 C 303.833,150.5 304.167,150.5 304.5,150.5C 308.435,153.094 312.101,156.094 315.5,159.5C 312.425,158.609 309.425,157.443 306.5,156C 305.242,154.259 304.242,152.426 303.5,150.5 Z"/></g>
<g><path style="opacity:1" fill="#fff1d1" d="M 315.5,159.5 C 316.833,160.833 318.167,162.167 319.5,163.5C 320.773,165.713 321.773,168.046 322.5,170.5C 318.191,168.173 315.857,164.506 315.5,159.5 Z"/></g>
<g><path style="opacity:0.831" fill="#d99544" d="M 10.5,160.5 C 10.495,163.532 10.1616,166.532 9.5,169.5C 9.36015,171.03 8.69348,172.03 7.5,172.5C 7.89839,168.239 8.89839,164.239 10.5,160.5 Z"/></g>
<g><path style="opacity:1" fill="#d7a269" d="M 189.5,175.5 C 215.5,175.5 241.5,175.5 267.5,175.5C 269.216,175.629 270.883,175.962 272.5,176.5C 273.167,176.5 273.5,176.833 273.5,177.5C 272.833,177.5 272.167,177.5 271.5,177.5C 247.358,176.79 223.192,176.456 199,176.5C 195.748,176.519 192.915,177.186 190.5,178.5C 190.5,179.167 190.5,179.833 190.5,180.5C 190.167,180.5 189.833,180.5 189.5,180.5C 189.5,178.833 189.5,177.167 189.5,175.5 Z"/></g>
<g><path style="opacity:1" fill="#e19441" d="M 23.5,173.5 C 22.8041,179.349 21.8041,185.016 20.5,190.5C 19.6302,185.08 19.7969,179.747 21,174.5C 21.6708,173.748 22.5041,173.414 23.5,173.5 Z"/></g>
<g><path style="opacity:1" fill="#fdf4de" d="M 272.5,176.5 C 270.883,175.962 269.216,175.629 267.5,175.5C 263.702,174.517 259.702,174.183 255.5,174.5C 255.5,173.5 255.5,172.5 255.5,171.5C 250.482,171.061 245.648,171.727 241,173.5C 235.718,171.023 230.385,171.023 225,173.5C 221.587,170.247 217.587,169.58 213,171.5C 211.393,171.769 210.226,172.603 209.5,174C 202.654,174.172 195.987,174.672 189.5,175.5C 189.5,177.167 189.5,178.833 189.5,180.5C 189.667,256.167 189.5,331.834 189,407.5C 188.392,409.154 187.892,410.821 187.5,412.5C 183.72,416.614 179.054,418.948 173.5,419.5C 168.489,419.666 163.489,419.499 158.5,419C 157.429,418.148 156.429,417.315 155.5,416.5C 154.542,415.038 153.376,413.705 152,412.5C 151.51,411.207 151.343,409.873 151.5,408.5C 153.973,411.804 156.973,414.638 160.5,417C 166.859,417.831 173.193,417.664 179.5,416.5C 180.5,415.833 181.5,415.167 182.5,414.5C 182.946,411.36 184.279,408.693 186.5,406.5C 187.167,328.833 187.833,251.167 188.5,173.5C 189.167,172.833 189.833,172.167 190.5,171.5C 192.714,173.924 193.714,173.257 193.5,169.5C 198.179,169.334 202.845,169.501 207.5,170C 208,170.5 208.5,171 209,171.5C 211.383,170.234 214.05,169.568 217,169.5C 219.755,169.525 222.422,169.859 225,170.5C 230.44,168.013 235.773,168.013 241,170.5C 246.072,169.529 251.238,169.195 256.5,169.5C 256.5,170.833 256.5,172.167 256.5,173.5C 257.5,173.5 258.5,173.5 259.5,173.5C 259.5,172.167 259.5,170.833 259.5,169.5C 263.5,169.5 267.5,169.5 271.5,169.5C 271.298,171.95 271.631,174.283 272.5,176.5 Z"/></g>
<g><path style="opacity:1" fill="#fff1cc" d="M 267.5,175.5 C 241.5,175.5 215.5,175.5 189.5,175.5C 195.987,174.672 202.654,174.172 209.5,174C 210.226,172.603 211.393,171.769 213,171.5C 217.587,169.58 221.587,170.247 225,173.5C 230.385,171.023 235.718,171.023 241,173.5C 245.648,171.727 250.482,171.061 255.5,171.5C 255.5,172.5 255.5,173.5 255.5,174.5C 259.702,174.183 263.702,174.517 267.5,175.5 Z"/></g>
<g><path style="opacity:1" fill="#d8964d" d="M 271.5,177.5 C 271.5,177.833 271.5,178.167 271.5,178.5C 260.582,179 249.582,179 238.5,178.5C 233.238,181.078 227.905,181.078 222.5,178.5C 211.551,178.596 200.885,178.596 190.5,178.5C 192.915,177.186 195.748,176.519 199,176.5C 223.192,176.456 247.358,176.79 271.5,177.5 Z"/></g>
<g><path style="opacity:1" fill="#fdf3dc" d="M 275.5,177.5 C 282.155,177.451 285.155,180.784 284.5,187.5C 283.857,185.924 282.857,184.59 281.5,183.5C 281.013,182.527 280.513,181.527 280,180.5C 278.122,179.947 276.622,178.947 275.5,177.5 Z"/></g>
<g><path style="opacity:1" fill="#e3933c" d="M 271.5,178.5 C 271.897,180.662 273.231,181.995 275.5,182.5C 274.667,182.833 273.833,183.167 273,183.5C 268.19,182.807 263.357,182.307 258.5,182C 257.584,181.626 256.75,181.126 256,180.5C 251.252,181.635 246.419,181.802 241.5,181C 241,180.5 240.5,180 240,179.5C 237.243,181.027 234.243,181.693 231,181.5C 220.538,181.429 210.038,181.429 199.5,181.5C 196.957,181.36 194.623,180.694 192.5,179.5C 191.817,179.863 191.15,180.196 190.5,180.5C 190.5,179.833 190.5,179.167 190.5,178.5C 200.885,178.596 211.551,178.596 222.5,178.5C 227.905,181.078 233.238,181.078 238.5,178.5C 249.582,179 260.582,179 271.5,178.5 Z"/></g>
<g><path style="opacity:1" fill="#e6913f" d="M 492.5,179.5 C 493.895,183.591 494.562,187.924 494.5,192.5C 493.053,193.134 492.387,194.301 492.5,196C 492.954,197.939 493.621,199.772 494.5,201.5C 492.83,201.249 491.33,200.582 490,199.5C 489.447,196.641 489.614,193.808 490.5,191C 489.953,188.783 488.953,186.783 487.5,185C 487.833,184.5 488.167,184 488.5,183.5C 489.333,184.5 490.167,185.5 491,186.5C 491.662,184.187 492.162,181.854 492.5,179.5 Z"/></g>
<g><path style="opacity:1" fill="#fff7fe" d="M 150.5,187.5 C 151.168,259.236 151.835,331.069 152.5,403C 152.167,403.167 151.833,403.333 151.5,403.5C 150.5,331.503 150.167,259.503 150.5,187.5 Z"/></g>
<g><path style="opacity:1" fill="#f9eecc" d="M 149.5,153.5 C 149.333,237.834 149.5,322.167 150,406.5C 150.278,407.416 150.778,408.082 151.5,408.5C 151.343,409.873 151.51,411.207 152,412.5C 153.376,413.705 154.542,415.038 155.5,416.5C 151.77,415.032 149.437,412.365 148.5,408.5C 147.334,324.001 147.168,239.334 148,154.5C 148.383,153.944 148.883,153.611 149.5,153.5 Z"/></g>
<g><path style="opacity:1" fill="#dea160" d="M 281.5,183.5 C 282.857,184.59 283.857,185.924 284.5,187.5C 284.5,187.833 284.5,188.167 284.5,188.5C 285.301,190.042 285.634,191.708 285.5,193.5C 282.819,190.808 281.486,187.475 281.5,183.5 Z"/></g>
<g><path style="opacity:1" fill="#da9a41" d="M 284.5,141.5 C 283.167,141.5 281.833,141.5 280.5,141.5C 279.737,140.732 278.737,140.232 277.5,140C 239.833,139.333 202.167,139.333 164.5,140C 162.148,140.24 160.148,141.073 158.5,142.5C 154.638,143.524 151.805,145.857 150,149.5C 149.51,150.793 149.343,152.127 149.5,153.5C 148.883,153.611 148.383,153.944 148,154.5C 147.168,239.334 147.334,324.001 148.5,408.5C 148.5,409.833 148.5,411.167 148.5,412.5C 147.883,412.389 147.383,412.056 147,411.5C 146.333,324.833 146.333,238.167 147,151.5C 148.117,150.051 148.784,148.384 149,146.5C 152.349,145.323 153.849,142.99 153.5,139.5C 196.157,138.205 238.824,138.205 281.5,139.5C 282.602,140.176 283.602,140.842 284.5,141.5 Z"/></g>
<g><path style="opacity:1" fill="#fff5e0" d="M 322.5,170.5 C 324.4,173.518 325.733,176.851 326.5,180.5C 327.461,204.807 327.794,229.141 327.5,253.5C 327.198,256.373 326.531,259.039 325.5,261.5C 325.667,234.165 325.5,206.831 325,179.5C 323.57,176.647 322.737,173.647 322.5,170.5 Z"/></g>
<g><path style="opacity:1" fill="#d2965f" d="M 494.5,192.5 C 495.477,195.287 495.81,198.287 495.5,201.5C 495.167,201.5 494.833,201.5 494.5,201.5C 493.621,199.772 492.954,197.939 492.5,196C 492.387,194.301 493.053,193.134 494.5,192.5 Z"/></g>
<g><path style="opacity:1" fill="#e09c4d" d="M 189.5,180.5 C 189.833,180.5 190.167,180.5 190.5,180.5C 190.667,256.501 190.5,332.501 190,408.5C 189.8,410.32 188.966,411.653 187.5,412.5C 187.892,410.821 188.392,409.154 189,407.5C 189.5,331.834 189.667,256.167 189.5,180.5 Z"/></g>
<g><path style="opacity:1" fill="#fefbef" d="M 287.5,196.5 C 288.662,214.329 288.829,232.329 288,250.5C 286.302,251.529 285.468,253.029 285.5,255C 287.402,258.928 286.402,260.095 282.5,258.5C 282.833,257.167 283.167,255.833 283.5,254.5C 284.345,253.329 285.011,251.995 285.5,250.5C 286.117,250.389 286.617,250.056 287,249.5C 287.5,231.836 287.667,214.17 287.5,196.5 Z"/></g>
<g><path style="opacity:1" fill="#f6c58e" d="M 326.5,180.5 C 326.833,180.5 327.167,180.5 327.5,180.5C 328.36,184.434 328.693,188.434 328.5,192.5C 328.83,213.007 328.497,233.34 327.5,253.5C 327.794,229.141 327.461,204.807 326.5,180.5 Z"/></g>
<g><path style="opacity:1" fill="#fffcdd" d="M 284.5,188.5 C 286.977,190.416 287.977,193.083 287.5,196.5C 287.667,214.17 287.5,231.836 287,249.5C 286.617,250.056 286.117,250.389 285.5,250.5C 286.814,231.372 286.814,212.372 285.5,193.5C 285.634,191.708 285.301,190.042 284.5,188.5 Z"/></g>
<g><path style="opacity:0.998" fill="#df9157" d="M 479.5,201.5 C 481.436,205.715 482.103,210.381 481.5,215.5C 481.5,216.167 481.167,216.5 480.5,216.5C 480.084,211.507 479.751,206.507 479.5,201.5 Z"/></g>
<g><path style="opacity:1" fill="#db954f" d="M 25.5,196.5 C 26.1279,203.913 25.4612,210.913 23.5,217.5C 23.35,210.279 24.0167,203.279 25.5,196.5 Z"/></g>
<g><path style="opacity:1" fill="#ed8e3e" d="M 479.5,199.5 C 481.414,200.185 483.414,200.685 485.5,201C 486.081,201.893 486.415,202.893 486.5,204C 486.038,207.094 485.871,210.261 486,213.5C 484.53,214.267 483.03,214.933 481.5,215.5C 482.103,210.381 481.436,205.715 479.5,201.5C 479.5,200.833 479.5,200.167 479.5,199.5 Z"/></g>
<g><path style="opacity:1" fill="#e09540" d="M 327.5,180.5 C 329.067,181.681 329.901,183.347 330,185.5C 330.829,206.004 330.663,226.337 329.5,246.5C 329.83,228.326 329.497,210.326 328.5,192.5C 328.693,188.434 328.36,184.434 327.5,180.5 Z"/></g>
<g><path style="opacity:1" fill="#f39024" d="M 333.5,202.5 C 334.83,208.966 335.497,215.799 335.5,223C 335.167,229.833 334.833,236.667 334.5,243.5C 333.501,229.85 333.167,216.183 333.5,202.5 Z"/></g>
<g><path style="opacity:0.958" fill="#ec9131" d="M 65.5,120.5 C 53.2847,129.209 42.118,139.209 32,150.5C 27.7936,157.659 24.9602,165.326 23.5,173.5C 22.5041,173.414 21.6708,173.748 21,174.5C 19.7969,179.747 19.6302,185.08 20.5,190.5C 15.9885,244.111 15.3218,297.777 18.5,351.5C 18.6633,353.857 18.4966,356.19 18,358.5C 16.7844,356.038 16.1177,353.371 16,350.5C 15.0565,351.263 14.5565,352.263 14.5,353.5C 16.3493,358.926 14.3493,360.926 8.5,359.5C 8.83418,353.006 8.00084,346.673 6,340.5C 5.32065,345.029 5.48731,349.529 6.5,354C 6.31987,356.241 5.48653,356.741 4,355.5C 3.71047,348.62 2.87714,341.954 1.5,335.5C 0.833333,329.167 0.166667,322.833 -0.5,316.5C -0.5,292.5 -0.5,268.5 -0.5,244.5C 0.575271,220.425 3.24194,196.425 7.5,172.5C 8.69348,172.03 9.36015,171.03 9.5,169.5C 10.1616,166.532 10.495,163.532 10.5,160.5C 11.8322,151.836 15.3322,144.169 21,137.5C 33.2023,124.451 46.7023,113.118 61.5,103.5C 64.0037,102.361 66.6703,101.694 69.5,101.5C 69.2786,105.803 66.9453,108.137 62.5,108.5C 63.2483,110.584 63.2483,112.584 62.5,114.5C 63.8829,116.32 64.8829,118.32 65.5,120.5 Z"/></g>
<g><path style="opacity:0.223" fill="#d69651" d="M 480.5,217.5 C 481.167,218.5 481.833,219.5 482.5,220.5C 482.5,220.833 482.5,221.167 482.5,221.5C 482.5,227.5 482.5,233.5 482.5,239.5C 481.689,232.322 481.022,224.988 480.5,217.5 Z"/></g>
<g><path style="opacity:1" fill="#df9d54" d="M 328.5,192.5 C 329.497,210.326 329.83,228.326 329.5,246.5C 329.875,253.346 329.042,260.013 327,266.5C 326.583,267.756 325.75,268.423 324.5,268.5C 325.219,266.236 325.552,263.903 325.5,261.5C 326.531,259.039 327.198,256.373 327.5,253.5C 328.497,233.34 328.83,213.007 328.5,192.5 Z"/></g>
<g><path style="opacity:1" fill="#fff2d0" d="M 281.5,260.5 C 279.132,265.359 275.132,267.692 269.5,267.5C 269.5,267.167 269.5,266.833 269.5,266.5C 274.052,265.558 278.052,263.558 281.5,260.5 Z"/></g>
<g><path style="opacity:1" fill="#df9540" d="M 476.5,233.5 C 477.425,246.332 478.092,259.332 478.5,272.5C 476.741,269.108 475.741,265.275 475.5,261C 476.46,251.875 476.793,242.708 476.5,233.5 Z"/></g>
<g><path style="opacity:1" fill="#e3963f" d="M 283.5,254.5 C 283.167,255.833 282.833,257.167 282.5,258.5C 281.662,258.842 281.328,259.508 281.5,260.5C 278.052,263.558 274.052,265.558 269.5,266.5C 252.167,266.5 234.833,266.5 217.5,266.5C 217.611,265.883 217.944,265.383 218.5,265C 236.167,264.667 253.833,264.333 271.5,264C 274.31,262.988 276.976,261.822 279.5,260.5C 279.683,258.064 279.016,255.897 277.5,254C 279.488,253.82 281.488,253.986 283.5,254.5 Z"/></g>
<g><path style="opacity:1" fill="#efb274" d="M 217.5,266.5 C 234.833,266.5 252.167,266.5 269.5,266.5C 269.5,266.833 269.5,267.167 269.5,267.5C 269.167,267.5 268.833,267.5 268.5,267.5C 250.453,267.193 232.453,267.527 214.5,268.5C 214.5,268.167 214.5,267.833 214.5,267.5C 215.391,266.89 216.391,266.557 217.5,266.5 Z"/></g>
<g><path style="opacity:1" fill="#fff6dc" d="M 268.5,267.5 C 250.647,268.22 232.647,268.886 214.5,269.5C 214.5,269.167 214.5,268.833 214.5,268.5C 232.453,267.527 250.453,267.193 268.5,267.5 Z"/></g>
<g><path style="opacity:0.959" fill="#ed912f" d="M 498.5,239.5 C 498.216,241.415 498.549,243.081 499.5,244.5C 499.5,268.5 499.5,292.5 499.5,316.5C 498.513,321.305 498.179,326.305 498.5,331.5C 496.96,333.838 496.294,336.505 496.5,339.5C 495.51,345.645 495.177,351.978 495.5,358.5C 492.572,358.148 489.738,357.482 487,356.5C 486.333,351.833 486.333,347.167 487,342.5C 490.248,341.321 490.082,340.321 486.5,339.5C 485.719,338.271 485.219,336.938 485,335.5C 484.667,335.833 484.333,336.167 484,336.5C 483.414,307.229 483.581,278.062 484.5,249C 483.845,239.735 483.179,230.568 482.5,221.5C 482.5,221.167 482.5,220.833 482.5,220.5C 482.116,218.335 482.783,216.668 484.5,215.5C 483.79,219.147 485.457,221.147 489.5,221.5C 490.115,226.171 489.449,230.837 487.5,235.5C 488.191,238.198 488.858,240.865 489.5,243.5C 492.167,243.5 494.833,243.5 497.5,243.5C 497.232,241.901 497.566,240.568 498.5,239.5 Z"/></g>
<g><path style="opacity:1" fill="#de974c" d="M 214.5,267.5 C 214.5,267.833 214.5,268.167 214.5,268.5C 214.5,268.833 214.5,269.167 214.5,269.5C 211.092,270.578 209.092,272.911 208.5,276.5C 208.167,276.5 207.833,276.5 207.5,276.5C 207.724,271.664 210.057,268.664 214.5,267.5 Z"/></g>
<g><path style="opacity:1" fill="#fffae1" d="M 325.5,261.5 C 325.552,263.903 325.219,266.236 324.5,268.5C 323.264,270.649 322.264,272.982 321.5,275.5C 319.5,277.833 317.5,280.167 315.5,282.5C 315.995,280.518 316.495,278.518 317,276.5C 320.887,272.056 323.72,267.056 325.5,261.5 Z"/></g>
<g><path style="opacity:1" fill="#daad65" d="M 321.5,275.5 C 320.558,279.09 318.558,281.757 315.5,283.5C 315.5,283.167 315.5,282.833 315.5,282.5C 317.5,280.167 319.5,277.833 321.5,275.5 Z"/></g>
<g><path style="opacity:1" fill="#dda469" d="M 207.5,276.5 C 207.833,276.5 208.167,276.5 208.5,276.5C 207.26,281.841 207.26,287.174 208.5,292.5C 205.483,288.786 204.15,284.452 204.5,279.5C 205.5,279.5 206.5,279.5 207.5,279.5C 207.5,278.5 207.5,277.5 207.5,276.5 Z"/></g>
<g><path style="opacity:1" fill="#e4a55b" d="M 315.5,283.5 C 314.833,287.541 312.5,289.541 308.5,289.5C 310.234,286.8 312.568,284.8 315.5,283.5 Z"/></g>
<g><path style="opacity:1" fill="#e2953c" d="M 478.5,286.5 C 478.139,300.337 477.472,314.004 476.5,327.5C 477.138,318.132 476.138,308.966 473.5,300C 475.349,295.379 477.016,290.879 478.5,286.5 Z"/></g>
<g><path style="opacity:1" fill="#eab26a" d="M 208.5,293.5 C 209.717,296.067 211.384,298.4 213.5,300.5C 212.833,300.5 212.167,300.5 211.5,300.5C 209.15,298.787 208.15,296.453 208.5,293.5 Z"/></g>
<g><path style="opacity:1" fill="#fef9e0" d="M 214.5,269.5 C 213.878,270.627 213.045,271.627 212,272.5C 211.576,278.507 211.076,284.507 210.5,290.5C 209.922,296.647 211.589,297.647 215.5,293.5C 216.292,295.929 216.292,298.095 215.5,300C 227.199,300.23 238.866,300.73 250.5,301.5C 250.674,303.861 251.007,306.194 251.5,308.5C 250.5,307.833 249.5,307.167 248.5,306.5C 248.489,304.983 247.823,303.816 246.5,303C 236.167,302.667 225.833,302.333 215.5,302C 214.956,301.283 214.289,300.783 213.5,300.5C 211.384,298.4 209.717,296.067 208.5,293.5C 208.5,293.167 208.5,292.833 208.5,292.5C 207.26,287.174 207.26,281.841 208.5,276.5C 209.092,272.911 211.092,270.578 214.5,269.5 Z"/></g>
<g><path style="opacity:1" fill="#d59d55" d="M 213.5,300.5 C 214.289,300.783 214.956,301.283 215.5,302C 225.833,302.333 236.167,302.667 246.5,303C 247.823,303.816 248.489,304.983 248.5,306.5C 246.811,305.069 244.811,304.236 242.5,304C 233.167,303.667 223.833,303.333 214.5,303C 213.748,302.329 213.414,301.496 213.5,300.5 Z"/></g>
<g><path style="opacity:1" fill="#e19c50" d="M 308.5,289.5 C 305.412,294.217 301.079,297.217 295.5,298.5C 294.079,301.428 295.079,302.762 298.5,302.5C 298.687,304.564 299.187,306.564 300,308.5C 304.031,314.441 307.197,320.775 309.5,327.5C 309.167,327.5 308.833,327.5 308.5,327.5C 307.617,324.296 305.95,321.629 303.5,319.5C 303.539,316.911 302.539,314.911 300.5,313.5C 298.363,308.563 295.696,303.896 292.5,299.5C 293.193,298.482 293.859,297.482 294.5,296.5C 299.434,294.699 304.101,292.366 308.5,289.5 Z"/></g>
<g><path style="opacity:1" fill="#e5953d" d="M 211.5,300.5 C 212.167,300.5 212.833,300.5 213.5,300.5C 213.414,301.496 213.748,302.329 214.5,303C 223.833,303.333 233.167,303.667 242.5,304C 244.811,304.236 246.811,305.069 248.5,306.5C 249.5,307.167 250.5,307.833 251.5,308.5C 251.557,309.609 251.89,310.609 252.5,311.5C 253.11,312.391 253.443,313.391 253.5,314.5C 253.5,315.833 253.5,317.167 253.5,318.5C 252.783,316.047 251.616,313.713 250,311.5C 248.815,313.559 247.648,313.726 246.5,312C 247.649,310.27 247.649,308.604 246.5,307C 235.055,304.671 223.388,303.837 211.5,304.5C 211.5,303.167 211.5,301.833 211.5,300.5 Z"/></g>
<g><path style="opacity:1" fill="#fef6e5" d="M 294.5,296.5 C 293.859,297.482 293.193,298.482 292.5,299.5C 295.696,303.896 298.363,308.563 300.5,313.5C 298.917,314.936 297.417,316.602 296,318.5C 295.667,318.167 295.333,317.833 295,317.5C 295.186,313.516 295.186,309.516 295,305.5C 292.293,303.353 290.793,300.519 290.5,297C 291.793,296.51 293.127,296.343 294.5,296.5 Z"/></g>
<g><path style="opacity:1" fill="#e1a160" d="M 253.5,314.5 C 255.897,316.662 257.564,319.329 258.5,322.5C 256.833,321.167 255.167,319.833 253.5,318.5C 253.5,317.167 253.5,315.833 253.5,314.5 Z"/></g>
<g><path style="opacity:1" fill="#fffae9" d="M 252.5,311.5 C 256.123,312.295 258.29,314.628 259,318.5C 259.333,318.167 259.667,317.833 260,317.5C 261,318.833 262,320.167 263,321.5C 262.556,324.486 263.556,327.153 266,329.5C 266.505,331.518 267.005,333.518 267.5,335.5C 266.833,335.167 266.167,334.833 265.5,334.5C 263.924,329.955 261.591,325.955 258.5,322.5C 257.564,319.329 255.897,316.662 253.5,314.5C 253.443,313.391 253.11,312.391 252.5,311.5 Z"/></g>
<g><path style="opacity:1" fill="#fff4d9" d="M 300.5,313.5 C 302.539,314.911 303.539,316.911 303.5,319.5C 302.022,319.762 300.689,319.429 299.5,318.5C 300.309,316.929 300.643,315.262 300.5,313.5 Z"/></g>
<g><path style="opacity:1" fill="#e5a15a" d="M 258.5,322.5 C 261.591,325.955 263.924,329.955 265.5,334.5C 262.81,332.79 260.81,330.457 259.5,327.5C 258.548,325.955 258.215,324.288 258.5,322.5 Z"/></g>
<g><path style="opacity:1" fill="#d79358" d="M 310.5,329.5 C 313.858,330.527 315.525,332.86 315.5,336.5C 314.091,334.028 312.424,331.695 310.5,329.5 Z"/></g>
<g><path style="opacity:1" fill="#fbf6e2" d="M 308.5,327.5 C 308.833,327.5 309.167,327.5 309.5,327.5C 309.833,328.167 310.167,328.833 310.5,329.5C 312.424,331.695 314.091,334.028 315.5,336.5C 316.167,338.167 316.833,339.833 317.5,341.5C 316.033,342.292 314.7,342.292 313.5,341.5C 312.833,339.167 312.167,336.833 311.5,334.5C 308.907,332.929 307.907,330.596 308.5,327.5 Z"/></g>
<g><path style="opacity:1" fill="#e79238" d="M 1.5,335.5 C 2.87714,341.954 3.71047,348.62 4,355.5C 5.48653,356.741 6.31987,356.241 6.5,354C 5.48731,349.529 5.32065,345.029 6,340.5C 8.00084,346.673 8.83418,353.006 8.5,359.5C 14.3493,360.926 16.3493,358.926 14.5,353.5C 14.5565,352.263 15.0565,351.263 16,350.5C 16.1177,353.371 16.7844,356.038 18,358.5C 18.4966,356.19 18.6633,353.857 18.5,351.5C 19.2248,355.395 19.8914,359.395 20.5,363.5C 18.0712,363.415 16.0712,362.415 14.5,360.5C 13.7492,361.376 13.2492,362.376 13,363.5C 12.3109,362.643 11.4776,361.977 10.5,361.5C 9.92913,365.31 9.09579,368.976 8,372.5C 7.50085,377.155 7.33418,381.821 7.5,386.5C 8.5,386.5 9.5,386.5 10.5,386.5C 10.5,385.5 10.5,384.5 10.5,383.5C 14.3837,383.576 18.0504,382.91 21.5,381.5C 21.5,380.167 21.5,378.833 21.5,377.5C 22.6874,380.946 23.3541,384.613 23.5,388.5C 21.4676,389.561 20.1342,391.228 19.5,393.5C 18.1552,392.653 17.1552,391.487 16.5,390C 15.552,389.517 14.552,389.351 13.5,389.5C 13.6567,390.873 13.49,392.207 13,393.5C 12.3333,390.833 11.6667,390.833 11,393.5C 10.5034,395.81 10.3367,398.143 10.5,400.5C 4.81215,379.342 1.81215,357.676 1.5,335.5 Z"/></g>
<g><path style="opacity:1" fill="#eaa969" d="M 265.5,334.5 C 266.167,334.833 266.833,335.167 267.5,335.5C 268.653,339.139 270.319,342.472 272.5,345.5C 268.909,342.655 266.576,338.988 265.5,334.5 Z"/></g>
<g><path style="opacity:0.395" fill="#d7974e" d="M 481.5,339.5 C 481.392,344.477 482.059,349.31 483.5,354C 482.357,356.425 481.024,358.592 479.5,360.5C 479.681,353.309 480.348,346.309 481.5,339.5 Z"/></g>
<g><path style="opacity:0.375" fill="#d79958" d="M 498.5,331.5 C 498.018,337.66 497.351,343.66 496.5,349.5C 496.5,346.167 496.5,342.833 496.5,339.5C 496.294,336.505 496.96,333.838 498.5,331.5 Z"/></g>
<g><path style="opacity:1" fill="#f4c993" d="M 273.5,347.5 C 274.906,347.973 275.573,348.973 275.5,350.5C 274.094,350.027 273.427,349.027 273.5,347.5 Z"/></g>
<g><path style="opacity:1" fill="#fdefd5" d="M 317.5,342.5 C 319.643,344.131 321.31,346.131 322.5,348.5C 323.11,349.391 323.443,350.391 323.5,351.5C 321.914,350.852 320.247,350.352 318.5,350C 319.059,349.275 319.392,348.442 319.5,347.5C 318.453,345.944 317.786,344.277 317.5,342.5 Z"/></g>
<g><path style="opacity:1" fill="#db9645" d="M 22.5,342.5 C 23.5832,342.539 24.5832,342.873 25.5,343.5C 26.4984,353.144 26.8318,362.81 26.5,372.5C 24.8097,362.639 23.4764,352.639 22.5,342.5 Z"/></g>
<g><path style="opacity:1" fill="#fefae9" d="M 279.5,355.5 C 281.582,355.472 283.416,356.139 285,357.5C 286.099,363.694 288.266,369.694 291.5,375.5C 290.833,375.167 290.167,374.833 289.5,374.5C 286.167,368.167 282.833,361.833 279.5,355.5 Z"/></g>
<g><path style="opacity:1" fill="#e1994c" d="M 322.5,348.5 C 329.034,353.556 333.034,360.223 334.5,368.5C 331.821,364.466 329.155,360.466 326.5,356.5C 325.737,354.632 324.737,352.965 323.5,351.5C 323.443,350.391 323.11,349.391 322.5,348.5 Z"/></g>
<g><path style="opacity:1" fill="#d89b34" d="M 494.5,359.5 C 494.806,362.385 494.473,365.052 493.5,367.5C 492.167,367.5 490.833,367.5 489.5,367.5C 488.629,364.728 488.629,362.062 489.5,359.5C 491.167,359.5 492.833,359.5 494.5,359.5 Z"/></g>
<g><path style="opacity:1" fill="#ed9130" d="M 20.5,363.5 C 20.8333,368.167 21.1667,372.833 21.5,377.5C 21.5,378.833 21.5,380.167 21.5,381.5C 18.0504,382.91 14.3837,383.576 10.5,383.5C 10.5,384.5 10.5,385.5 10.5,386.5C 9.5,386.5 8.5,386.5 7.5,386.5C 7.33418,381.821 7.50085,377.155 8,372.5C 9.09579,368.976 9.92913,365.31 10.5,361.5C 11.4776,361.977 12.3109,362.643 13,363.5C 13.2492,362.376 13.7492,361.376 14.5,360.5C 16.0712,362.415 18.0712,363.415 20.5,363.5 Z"/></g>
<g><path style="opacity:1" fill="#fdf6d8" d="M 326.5,356.5 C 329.155,360.466 331.821,364.466 334.5,368.5C 334.5,368.833 334.5,369.167 334.5,369.5C 334.557,370.609 334.89,371.609 335.5,372.5C 333.406,369.651 330.906,366.984 328,364.5C 327.605,361.793 327.105,359.127 326.5,356.5 Z"/></g>
<g><path style="opacity:1" fill="#e69a50" d="M 277.5,354.5 C 278.167,354.833 278.833,355.167 279.5,355.5C 282.833,361.833 286.167,368.167 289.5,374.5C 287.916,373.618 286.249,372.785 284.5,372C 283.81,369.304 282.31,367.137 280,365.5C 279.586,361.649 278.752,357.983 277.5,354.5 Z"/></g>
<g><path style="opacity:0.525" fill="#d6974e" d="M 494.5,359.5 C 494.833,359.5 495.167,359.5 495.5,359.5C 495.624,365.069 494.957,370.402 493.5,375.5C 493.5,372.833 493.5,370.167 493.5,367.5C 494.473,365.052 494.806,362.385 494.5,359.5 Z"/></g>
<g><path style="opacity:1" fill="#e5b479" d="M 334.5,369.5 C 337.664,371.147 339.33,373.814 339.5,377.5C 338.065,376.087 337.065,374.42 336.5,372.5C 336.167,372.5 335.833,372.5 335.5,372.5C 334.89,371.609 334.557,370.609 334.5,369.5 Z"/></g>
<g><path style="opacity:1" fill="#fefbef" d="M 292.5,378.5 C 294.193,379.475 295.693,380.808 297,382.5C 298,381.833 299,381.167 300,380.5C 301.064,383.564 302.897,386.064 305.5,388C 302.309,389.869 301.642,392.369 303.5,395.5C 299.779,391.112 296.445,386.445 293.5,381.5C 293.443,380.391 293.11,379.391 292.5,378.5 Z"/></g>
<g><path style="opacity:0.944" fill="#d9984e" d="M 471.5,379.5 C 471.102,384.412 470.102,389.079 468.5,393.5C 468.614,390.15 468.947,386.817 469.5,383.5C 469.585,381.667 470.252,380.334 471.5,379.5 Z"/></g>
<g><path style="opacity:1" fill="#df9c51" d="M 340.5,378.5 C 344.173,381.215 346.506,384.881 347.5,389.5C 344.806,386.124 342.473,382.457 340.5,378.5 Z"/></g>
<g><path style="opacity:1" fill="#fef2d6" d="M 336.5,372.5 C 337.065,374.42 338.065,376.087 339.5,377.5C 340.167,377.5 340.5,377.833 340.5,378.5C 342.473,382.457 344.806,386.124 347.5,389.5C 348.773,391.713 349.773,394.046 350.5,396.5C 350.806,399.385 350.473,402.052 349.5,404.5C 349.662,402.473 349.495,400.473 349,398.5C 347.075,394.567 345.242,390.567 343.5,386.5C 341.779,383.703 339.613,381.369 337,379.5C 336.503,377.19 336.337,374.857 336.5,372.5 Z"/></g>
<g><path style="opacity:1" fill="#e39e56" d="M 293.5,381.5 C 296.445,386.445 299.779,391.112 303.5,395.5C 306.911,404 311.578,411.667 317.5,418.5C 317.611,419.117 317.944,419.617 318.5,420C 322.358,420.81 326.024,420.643 329.5,419.5C 330.791,419.737 331.791,419.404 332.5,418.5C 336.548,417.642 340.215,415.975 343.5,413.5C 343.67,414.822 343.337,415.989 342.5,417C 336.914,418.862 331.414,420.695 326,422.5C 320.858,422.644 316.525,420.977 313,417.5C 312.563,414.228 310.73,412.561 307.5,412.5C 307.662,410.473 307.495,408.473 307,406.5C 305.29,402.928 303.29,399.595 301,396.5C 300.667,396.833 300.333,397.167 300,397.5C 299.667,395.5 299.333,393.5 299,391.5C 297.594,390.332 296.428,390.665 295.5,392.5C 294.453,391.078 294.453,389.578 295.5,388C 293.987,386.121 293.321,383.954 293.5,381.5 Z"/></g>
<g><path style="opacity:1" fill="#eb9232" d="M 482.5,221.5 C 483.179,230.568 483.845,239.735 484.5,249C 483.581,278.062 483.414,307.229 484,336.5C 484.333,336.167 484.667,335.833 485,335.5C 485.219,336.938 485.719,338.271 486.5,339.5C 490.082,340.321 490.248,341.321 487,342.5C 486.333,347.167 486.333,351.833 487,356.5C 489.738,357.482 492.572,358.148 495.5,358.5C 495.177,351.978 495.51,345.645 496.5,339.5C 496.5,342.833 496.5,346.167 496.5,349.5C 496.813,353.042 496.479,356.375 495.5,359.5C 495.167,359.5 494.833,359.5 494.5,359.5C 492.833,359.5 491.167,359.5 489.5,359.5C 488.629,362.062 488.629,364.728 489.5,367.5C 490.833,367.5 492.167,367.5 493.5,367.5C 493.5,370.167 493.5,372.833 493.5,375.5C 493.172,399.982 483.838,420.148 465.5,436C 407.732,482.904 343.732,519.571 273.5,546C 269.595,547.359 265.595,548.192 261.5,548.5C 257.029,547.911 253.029,548.577 249.5,550.5C 241.331,549.958 233.331,548.458 225.5,546C 155.268,519.571 91.2682,482.904 33.5,436C 26.9257,430.096 21.0924,423.596 16,416.5C 13.2978,411.437 11.4644,406.103 10.5,400.5C 10.3367,398.143 10.5034,395.81 11,393.5C 11.6667,390.833 12.3333,390.833 13,393.5C 13.49,392.207 13.6567,390.873 13.5,389.5C 14.552,389.351 15.552,389.517 16.5,390C 17.1552,391.487 18.1552,392.653 19.5,393.5C 20.1342,391.228 21.4676,389.561 23.5,388.5C 25.374,396.602 28.5407,404.269 33,411.5C 51.9228,430.528 72.7562,447.028 95.5,461C 126.704,480.775 159.038,498.775 192.5,515C 205.832,521.165 219.499,526.498 233.5,531C 241.354,533.324 249.354,533.991 257.5,533C 286.414,524.379 314.081,512.712 340.5,498C 379.208,477.324 415.875,453.657 450.5,427C 457.37,421.131 463.536,414.631 469,407.5C 474.606,392.302 478.106,376.635 479.5,360.5C 481.024,358.592 482.357,356.425 483.5,354C 482.059,349.31 481.392,344.477 481.5,339.5C 482.354,306.174 482.687,272.841 482.5,239.5C 482.5,233.5 482.5,227.5 482.5,221.5 Z"/></g>
<g><path style="opacity:1" fill="#e39535" d="M 407.5,452.5 C 402.511,456.331 397.178,459.664 391.5,462.5C 391.5,460.833 391.5,459.167 391.5,457.5C 395.024,457.119 398.358,456.119 401.5,454.5C 401.023,453.522 400.357,452.689 399.5,452C 401,450.5 402.5,449 404,447.5C 404.49,448.793 404.657,450.127 404.5,451.5C 405.791,451.263 406.791,451.596 407.5,452.5 Z"/></g>
<g><path style="opacity:1" fill="#fee5bf" d="M 317.5,418.5 C 321.434,419.36 325.434,419.693 329.5,419.5C 326.024,420.643 322.358,420.81 318.5,420C 317.944,419.617 317.611,419.117 317.5,418.5 Z"/></g>
<g><path style="opacity:1" fill="#e59649" d="M 187.5,412.5 C 186.676,415.315 185.009,417.482 182.5,419C 183.308,419.308 183.975,419.808 184.5,420.5C 180.904,421.079 177.238,421.079 173.5,420.5C 173.5,420.167 173.5,419.833 173.5,419.5C 179.054,418.948 183.72,416.614 187.5,412.5 Z"/></g>
<g><path style="opacity:1" fill="#fef6db" d="M 347.5,409.5 C 346.167,410.833 344.833,412.167 343.5,413.5C 340.215,415.975 336.548,417.642 332.5,418.5C 332.389,417.883 332.056,417.383 331.5,417C 335.894,417.497 338.228,415.664 338.5,411.5C 341.598,411.244 344.598,410.578 347.5,409.5 Z"/></g>
<g><path style="opacity:1" fill="#e4a65e" d="M 148.5,408.5 C 149.437,412.365 151.77,415.032 155.5,416.5C 156.429,417.315 157.429,418.148 158.5,419C 163.489,419.499 168.489,419.666 173.5,419.5C 173.5,419.833 173.5,420.167 173.5,420.5C 165.874,421.236 158.541,420.236 151.5,417.5C 150.048,416.06 149.048,414.394 148.5,412.5C 148.5,411.167 148.5,409.833 148.5,408.5 Z"/></g>
<g><path style="opacity:1" fill="#e2994e" d="M 350.5,396.5 C 353.332,398.407 354.166,401.073 353,404.5C 350.955,407.423 348.788,410.257 346.5,413C 345.552,413.483 344.552,413.649 343.5,413.5C 344.833,412.167 346.167,410.833 347.5,409.5C 348.167,407.833 348.833,406.167 349.5,404.5C 350.473,402.052 350.806,399.385 350.5,396.5 Z"/></g>
<g><path style="opacity:0.953" fill="#d9954f" d="M 290.5,516.5 C 288.351,517.736 286.018,518.736 283.5,519.5C 283.414,518.504 283.748,517.671 284.5,517C 286.473,516.505 288.473,516.338 290.5,516.5 Z"/></g>
<g><path style="opacity:1" fill="#df924f" d="M 241.5,527.5 C 237.521,527.258 233.854,526.258 230.5,524.5C 232.734,524.38 234.901,524.713 237,525.5C 238.285,525.05 239.452,524.383 240.5,523.5C 241.429,524.689 241.762,526.022 241.5,527.5 Z"/></g>
<g><path style="opacity:0.988" fill="#db9354" d="M 265.5,525.5 C 263.095,526.768 260.428,527.435 257.5,527.5C 259.344,523.327 262.011,522.661 265.5,525.5 Z"/></g>
<g><path style="opacity:0.564" fill="#d9954f" d="M 261.5,548.5 C 257.733,549.795 253.733,550.461 249.5,550.5C 253.029,548.577 257.029,547.911 261.5,548.5 Z"/></g>
</svg>
