<?xml version="1.0" encoding="UTF-8"?>
<!DOCTYPE svg PUBLIC "-//W3C//DTD SVG 1.1//EN" "http://www.w3.org/Graphics/SVG/1.1/DTD/svg11.dtd">
<svg xmlns="http://www.w3.org/2000/svg" version="1.1" width="250px" height="281px" style="shape-rendering:geometricPrecision; text-rendering:geometricPrecision; image-rendering:optimizeQuality; fill-rule:evenodd; clip-rule:evenodd" xmlns:xlink="http://www.w3.org/1999/xlink">
<g><path style="opacity:1" fill="#ec9231" d="M 157.5,25.5 C 156.167,25.8333 156.167,26.1667 157.5,26.5C 157.034,28.2012 157.034,29.7012 157.5,31C 159.797,31.0178 162.131,30.8511 164.5,30.5C 164.833,30.5 165.167,30.5 165.5,30.5C 165.5,31.8333 166.167,32.5 167.5,32.5C 168.167,32.5 168.833,32.5 169.5,32.5C 169.842,33.3382 170.508,33.6716 171.5,33.5C 171.842,34.3382 172.508,34.6716 173.5,34.5C 173.842,35.3382 174.508,35.6716 175.5,35.5C 175.842,36.3382 176.508,36.6716 177.5,36.5C 177.5,37.1667 177.833,37.5 178.5,37.5C 178.842,38.3382 179.508,38.6716 180.5,38.5C 180.842,39.3382 181.508,39.6716 182.5,39.5C 182.842,40.3382 183.508,40.6716 184.5,40.5C 184.5,41.1667 184.833,41.5 185.5,41.5C 185.842,42.3382 186.508,42.6716 187.5,42.5C 187.842,43.3382 188.508,43.6716 189.5,43.5C 189.5,44.1667 189.833,44.5 190.5,44.5C 190.842,45.3382 191.508,45.6716 192.5,45.5C 192.842,46.3382 193.508,46.6716 194.5,46.5C 194.5,47.1667 194.833,47.5 195.5,47.5C 195.842,48.3382 196.508,48.6716 197.5,48.5C 197.5,49.1667 197.833,49.5 198.5,49.5C 198.842,50.3382 199.508,50.6716 200.5,50.5C 200.5,51.1667 200.833,51.5 201.5,51.5C 201.842,52.3382 202.508,52.6716 203.5,52.5C 203.5,53.1667 203.833,53.5 204.5,53.5C 204.842,54.3382 205.508,54.6716 206.5,54.5C 206.973,55.9063 207.973,56.573 209.5,56.5C 209.5,57.1667 209.833,57.5 210.5,57.5C 210.842,58.3382 211.508,58.6716 212.5,58.5C 212.5,59.1667 212.833,59.5 213.5,59.5C 213.973,60.9063 214.973,61.573 216.5,61.5C 216.5,62.1667 216.833,62.5 217.5,62.5C 217.973,63.9063 218.973,64.573 220.5,64.5C 220.5,65.1667 220.833,65.5 221.5,65.5C 221.5,66.1667 221.833,66.5 222.5,66.5C 223.262,68.2624 224.596,69.2624 226.5,69.5C 226.5,70.1667 226.833,70.5 227.5,70.5C 227.5,71.1667 227.833,71.5 228.5,71.5C 228.5,72.1667 228.833,72.5 229.5,72.5C 229.5,73.1667 229.833,73.5 230.5,73.5C 230.427,75.0269 231.094,76.0269 232.5,76.5C 232.66,78.153 233.326,79.4863 234.5,80.5C 234.263,81.791 234.596,82.791 235.5,83.5C 235.216,85.4147 235.549,87.0813 236.5,88.5C 236.205,90.7354 236.539,92.7354 237.5,94.5C 237.5,97.5 237.5,100.5 237.5,103.5C 237.579,104.93 237.246,106.264 236.5,107.5C 236.957,108.298 237.624,108.631 238.5,108.5C 238.5,111.5 238.5,114.5 238.5,117.5C 238.241,122.601 237.241,127.435 235.5,132C 236.741,133.698 238.074,135.198 239.5,136.5C 239.5,140.833 239.5,145.167 239.5,149.5C 238.515,153.634 238.182,157.968 238.5,162.5C 238.5,166.833 238.5,171.167 238.5,175.5C 238.5,175.833 238.5,176.167 238.5,176.5C 237.523,179.287 237.19,182.287 237.5,185.5C 236.539,187.265 236.205,189.265 236.5,191.5C 235.549,192.919 235.216,194.585 235.5,196.5C 234.596,197.209 234.263,198.209 234.5,199.5C 233.326,200.514 232.66,201.847 232.5,203.5C 231.094,203.973 230.427,204.973 230.5,206.5C 229.833,206.5 229.5,206.833 229.5,207.5C 228.833,207.5 228.5,207.833 228.5,208.5C 227.833,208.5 227.5,208.833 227.5,209.5C 226.833,209.5 226.5,209.833 226.5,210.5C 224.596,210.738 223.262,211.738 222.5,213.5C 221.833,213.5 221.5,213.833 221.5,214.5C 220.833,214.5 220.5,214.833 220.5,215.5C 218.973,215.427 217.973,216.094 217.5,217.5C 216.833,217.5 216.5,217.833 216.5,218.5C 214.973,218.427 213.973,219.094 213.5,220.5C 212.833,220.5 212.5,220.833 212.5,221.5C 211.508,221.328 210.842,221.662 210.5,222.5C 209.833,222.5 209.5,222.833 209.5,223.5C 207.973,223.427 206.973,224.094 206.5,225.5C 204.973,225.427 203.973,226.094 203.5,227.5C 202.508,227.328 201.842,227.662 201.5,228.5C 200.833,228.5 200.5,228.833 200.5,229.5C 199.508,229.328 198.842,229.662 198.5,230.5C 197.833,230.5 197.5,230.833 197.5,231.5C 196.508,231.328 195.842,231.662 195.5,232.5C 194.833,232.5 194.5,232.833 194.5,233.5C 193.508,233.328 192.842,233.662 192.5,234.5C 191.508,234.328 190.842,234.662 190.5,235.5C 189.833,235.5 189.5,235.833 189.5,236.5C 188.508,236.328 187.842,236.662 187.5,237.5C 186.508,237.328 185.842,237.662 185.5,238.5C 184.833,238.5 184.5,238.833 184.5,239.5C 183.508,239.328 182.842,239.662 182.5,240.5C 181.508,240.328 180.842,240.662 180.5,241.5C 179.508,241.328 178.842,241.662 178.5,242.5C 177.833,242.5 177.5,242.833 177.5,243.5C 176.508,243.328 175.842,243.662 175.5,244.5C 174.508,244.328 173.842,244.662 173.5,245.5C 172.508,245.328 171.842,245.662 171.5,246.5C 170.508,246.328 169.842,246.662 169.5,247.5C 168.833,247.5 168.167,247.5 167.5,247.5C 166.167,247.5 165.5,248.167 165.5,249.5C 165.167,249.5 164.833,249.5 164.5,249.5C 163.279,248.972 162.113,248.305 161,247.5C 159.978,249.664 158.811,251.664 157.5,253.5C 157.167,253.5 156.833,253.5 156.5,253.5C 155.833,253.5 155.5,253.833 155.5,254.5C 154.508,254.328 153.842,254.662 153.5,255.5C 152.508,255.328 151.842,255.662 151.5,256.5C 150.508,256.328 149.842,256.662 149.5,257.5C 148.508,257.328 147.842,257.662 147.5,258.5C 146.209,258.263 145.209,258.596 144.5,259.5C 143.508,259.328 142.842,259.662 142.5,260.5C 141.209,260.263 140.209,260.596 139.5,261.5C 138.508,261.328 137.842,261.662 137.5,262.5C 136.5,262.5 135.5,262.5 134.5,262.5C 133.07,262.579 131.736,262.246 130.5,261.5C 129.081,262.005 128.415,263.005 128.5,264.5C 125.167,264.5 121.833,264.5 118.5,264.5C 117.432,263.566 116.099,263.232 114.5,263.5C 113.791,262.596 112.791,262.263 111.5,262.5C 111.158,261.662 110.492,261.328 109.5,261.5C 108.791,260.596 107.791,260.263 106.5,260.5C 106.158,259.662 105.492,259.328 104.5,259.5C 103.791,258.596 102.791,258.263 101.5,258.5C 101.158,257.662 100.492,257.328 99.5,257.5C 99.1583,256.662 98.4916,256.328 97.5,256.5C 96.1507,255.356 95.8174,255.356 96.5,256.5C 96.5743,258.411 97.5743,259.578 99.5,260C 97.2511,260.863 95.4178,260.363 94,258.5C 91.1738,259.917 91.0072,261.417 93.5,263C 92.2625,263.232 91.2625,263.732 90.5,264.5C 89.8333,264.5 89.5,264.167 89.5,263.5C 87.8837,261.688 86.8837,259.521 86.5,257C 86.2776,254.725 87.2776,253.559 89.5,253.5C 90.8333,253.167 90.8333,252.833 89.5,252.5C 89.4226,251.25 88.756,250.417 87.5,250C 88.6734,246.89 88.1734,246.723 86,249.5C 84.9887,248.663 83.8221,248.33 82.5,248.5C 82.1667,248.5 81.8333,248.5 81.5,248.5C 81.1583,247.662 80.4916,247.328 79.5,247.5C 79.1583,246.662 78.4916,246.328 77.5,246.5C 77.1583,245.662 76.4916,245.328 75.5,245.5C 75.1583,244.662 74.4916,244.328 73.5,244.5C 73.5,244.167 73.5,243.833 73.5,243.5C 73.1583,242.662 72.4916,242.328 71.5,242.5C 71.1667,242.5 70.8333,242.5 70.5,242.5C 70.1583,241.662 69.4916,241.328 68.5,241.5C 68.1583,240.662 67.4916,240.328 66.5,240.5C 66.1583,239.662 65.4916,239.328 64.5,239.5C 64.5,238.833 64.1667,238.5 63.5,238.5C 63.1583,237.662 62.4916,237.328 61.5,237.5C 61.1583,236.662 60.4916,236.328 59.5,236.5C 59.5,235.833 59.1667,235.5 58.5,235.5C 58.1583,234.662 57.4916,234.328 56.5,234.5C 56.1583,233.662 55.4916,233.328 54.5,233.5C 54.5,232.833 54.1667,232.5 53.5,232.5C 53.1583,231.662 52.4916,231.328 51.5,231.5C 51.5,230.833 51.1667,230.5 50.5,230.5C 50.1583,229.662 49.4916,229.328 48.5,229.5C 48.5,228.833 48.1667,228.5 47.5,228.5C 47.1583,227.662 46.4916,227.328 45.5,227.5C 45.5,226.833 45.1667,226.5 44.5,226.5C 44.1583,225.662 43.4916,225.328 42.5,225.5C 42.5,224.833 42.1667,224.5 41.5,224.5C 41.1583,223.662 40.4916,223.328 39.5,223.5C 39.5,222.833 39.1667,222.5 38.5,222.5C 38.1583,221.662 37.4916,221.328 36.5,221.5C 36.5,220.833 36.1667,220.5 35.5,220.5C 35.0269,219.094 34.0269,218.427 32.5,218.5C 32.5,217.833 32.1667,217.5 31.5,217.5C 31.0269,216.094 30.0269,215.427 28.5,215.5C 28.5,214.833 28.1667,214.5 27.5,214.5C 27.5,213.833 27.1667,213.5 26.5,213.5C 25.7377,211.738 24.4044,210.738 22.5,210.5C 22.5,209.833 22.1667,209.5 21.5,209.5C 21.5,208.833 21.1667,208.5 20.5,208.5C 20.5,207.833 20.1667,207.5 19.5,207.5C 19.5,206.833 19.1667,206.5 18.5,206.5C 18.573,204.973 17.9063,203.973 16.5,203.5C 16.3404,201.847 15.6737,200.514 14.5,199.5C 14.7373,198.209 14.404,197.209 13.5,196.5C 13.7845,194.585 13.4511,192.919 12.5,191.5C 12.7947,189.265 12.4614,187.265 11.5,185.5C 11.1667,173.5 10.8333,173.5 10.5,185.5C 11.0211,189.922 9.02111,192.255 4.5,192.5C 3.31456,187.865 2.31456,183.198 1.5,178.5C 2.02527,177.808 2.69194,177.308 3.5,177C 2.54948,173.943 2.21614,170.777 2.5,167.5C 1.5,167.5 0.5,167.5 -0.5,167.5C -0.5,149.833 -0.5,132.167 -0.5,114.5C 0.495904,114.414 1.32924,114.748 2,115.5C 2.96695,114.322 3.46695,112.989 3.5,111.5C 4.81592,114.028 5.98259,114.028 7,111.5C 7.17331,117.016 7.67331,122.349 8.5,127.5C 8.5,138.5 8.5,149.5 8.5,160.5C 8.02949,162.288 7.69615,164.122 7.5,166C 7.60826,167.681 8.27493,168.848 9.5,169.5C 9.33788,171.527 9.50454,173.527 10,175.5C 10.499,171.179 10.6657,166.846 10.5,162.5C 10.8168,158.298 10.4834,154.298 9.5,150.5C 9.5,143.167 9.5,135.833 9.5,128.5C 10.4816,125.038 10.815,121.371 10.5,117.5C 10.5,114.5 10.5,111.5 10.5,108.5C 12.4364,104.285 13.1031,99.6186 12.5,94.5C 12.5,92.5 12.5,90.5 12.5,88.5C 13.4511,87.0813 13.7845,85.4147 13.5,83.5C 14.404,82.791 14.7373,81.791 14.5,80.5C 15.6737,79.4863 16.3404,78.153 16.5,76.5C 17.9063,76.0269 18.573,75.0269 18.5,73.5C 19.1667,73.5 19.5,73.1667 19.5,72.5C 20.1667,72.5 20.5,72.1667 20.5,71.5C 21.1667,71.5 21.5,71.1667 21.5,70.5C 22.1667,70.5 22.5,70.1667 22.5,69.5C 24.4044,69.2624 25.7377,68.2624 26.5,66.5C 27.1667,66.5 27.5,66.1667 27.5,65.5C 28.1667,65.5 28.5,65.1667 28.5,64.5C 30.0269,64.573 31.0269,63.9063 31.5,62.5C 32.1667,62.5 32.5,62.1667 32.5,61.5C 34.0269,61.573 35.0269,60.9063 35.5,59.5C 36.1667,59.5 36.5,59.1667 36.5,58.5C 37.4916,58.6716 38.1583,58.3382 38.5,57.5C 39.1667,57.5 39.5,57.1667 39.5,56.5C 41.0269,56.573 42.0269,55.9063 42.5,54.5C 44.0269,54.573 45.0269,53.9063 45.5,52.5C 46.4916,52.6716 47.1583,52.3382 47.5,51.5C 48.1667,51.5 48.5,51.1667 48.5,50.5C 49.4916,50.6716 50.1583,50.3382 50.5,49.5C 51.1667,49.5 51.5,49.1667 51.5,48.5C 52.4916,48.6716 53.1583,48.3382 53.5,47.5C 54.1667,47.5 54.5,47.1667 54.5,46.5C 55.4916,46.6716 56.1583,46.3382 56.5,45.5C 57.4916,45.6716 58.1583,45.3382 58.5,44.5C 59.1667,44.5 59.5,44.1667 59.5,43.5C 60.4916,43.6716 61.1583,43.3382 61.5,42.5C 62.4916,42.6716 63.1583,42.3382 63.5,41.5C 64.1667,41.5 64.5,41.1667 64.5,40.5C 65.4916,40.6716 66.1583,40.3382 66.5,39.5C 67.4916,39.6716 68.1583,39.3382 68.5,38.5C 69.4916,38.6716 70.1583,38.3382 70.5,37.5C 71.1667,37.5 71.5,37.1667 71.5,36.5C 72.4916,36.6716 73.1583,36.3382 73.5,35.5C 74.4916,35.6716 75.1583,35.3382 75.5,34.5C 76.4916,34.6716 77.1583,34.3382 77.5,33.5C 78.4916,33.6716 79.1583,33.3382 79.5,32.5C 80.1667,32.5 80.8333,32.5 81.5,32.5C 83.632,32.4456 84.9653,31.4456 85.5,29.5C 86.1667,29.5 86.5,29.1667 86.5,28.5C 87.4916,28.6716 88.1583,28.3382 88.5,27.5C 89.1667,27.5 89.8333,27.5 90.5,27.5C 92.1788,27.7148 93.1788,27.0481 93.5,25.5C 94.4916,25.6716 95.1583,25.3382 95.5,24.5C 96.4916,24.6716 97.1583,24.3382 97.5,23.5C 98.4916,23.6716 99.1583,23.3382 99.5,22.5C 100.492,22.6716 101.158,22.3382 101.5,21.5C 102.791,21.7373 103.791,21.404 104.5,20.5C 105.492,20.6716 106.158,20.3382 106.5,19.5C 107.791,19.7373 108.791,19.404 109.5,18.5C 110.492,18.6716 111.158,18.3382 111.5,17.5C 112.791,17.7373 113.791,17.404 114.5,16.5C 116.099,16.7678 117.432,16.4345 118.5,15.5C 122.5,15.5 126.5,15.5 130.5,15.5C 131.568,16.4345 132.901,16.7678 134.5,16.5C 135.209,17.404 136.209,17.7373 137.5,17.5C 137.842,18.3382 138.508,18.6716 139.5,18.5C 140.209,19.404 141.209,19.7373 142.5,19.5C 142.842,20.3382 143.508,20.6716 144.5,20.5C 145.209,21.404 146.209,21.7373 147.5,21.5C 148.167,22.8333 148.833,22.8333 149.5,21.5C 148.559,19.5336 147.559,17.5336 146.5,15.5C 152.16,12.493 153.493,13.8263 150.5,19.5C 151.868,20.5937 153.035,20.2603 154,18.5C 155.908,21.3323 156.741,20.999 156.5,17.5C 157.833,17.5 159.167,17.5 160.5,17.5C 160.5,19.8333 160.5,22.1667 160.5,24.5C 159.209,24.2627 158.209,24.596 157.5,25.5 Z"/></g>
<g><path style="opacity:0.999" fill="#ea9233" d="M 247.5,95.5 C 244.695,97.7561 245.028,99.4228 248.5,100.5C 248.205,102.735 248.539,104.735 249.5,106.5C 249.5,128.833 249.5,151.167 249.5,173.5C 248.343,182.41 246.843,191.41 245,200.5C 243.444,205.28 241.111,209.613 238,213.5C 206.38,241.069 170.547,261.569 130.5,275C 116.266,275.091 102.932,271.591 90.5,264.5C 91.2625,263.732 92.2625,263.232 93.5,263C 91.0072,261.417 91.1738,259.917 94,258.5C 95.4178,260.363 97.2511,260.863 99.5,260C 97.5743,259.578 96.5743,258.411 96.5,256.5C 96.8333,256.5 97.1667,256.5 97.5,256.5C 97.8417,257.338 98.5084,257.672 99.5,257.5C 99.8417,258.338 100.508,258.672 101.5,258.5C 102.209,259.404 103.209,259.737 104.5,259.5C 104.842,260.338 105.508,260.672 106.5,260.5C 107.209,261.404 108.209,261.737 109.5,261.5C 109.842,262.338 110.508,262.672 111.5,262.5C 112.209,263.404 113.209,263.737 114.5,263.5C 115.568,264.434 116.901,264.768 118.5,264.5C 122.5,265.833 126.5,265.833 130.5,264.5C 132.099,264.768 133.432,264.434 134.5,263.5C 135.791,263.737 136.791,263.404 137.5,262.5C 138.492,262.672 139.158,262.338 139.5,261.5C 140.791,261.737 141.791,261.404 142.5,260.5C 143.492,260.672 144.158,260.338 144.5,259.5C 145.791,259.737 146.791,259.404 147.5,258.5C 148.492,258.672 149.158,258.338 149.5,257.5C 150.492,257.672 151.158,257.338 151.5,256.5C 152.492,256.672 153.158,256.338 153.5,255.5C 154.492,255.672 155.158,255.338 155.5,254.5C 155.5,253.833 155.833,253.5 156.5,253.5C 156.833,254.833 157.167,254.833 157.5,253.5C 158.811,251.664 159.978,249.664 161,247.5C 162.113,248.305 163.279,248.972 164.5,249.5C 164.833,250.833 165.167,250.833 165.5,249.5C 165.5,248.167 166.167,247.5 167.5,247.5C 168.167,248.833 168.833,248.833 169.5,247.5C 170.492,247.672 171.158,247.338 171.5,246.5C 172.492,246.672 173.158,246.338 173.5,245.5C 174.492,245.672 175.158,245.338 175.5,244.5C 176.492,244.672 177.158,244.338 177.5,243.5C 178.167,243.5 178.5,243.167 178.5,242.5C 179.492,242.672 180.158,242.338 180.5,241.5C 181.492,241.672 182.158,241.338 182.5,240.5C 183.492,240.672 184.158,240.338 184.5,239.5C 185.167,239.5 185.5,239.167 185.5,238.5C 186.492,238.672 187.158,238.338 187.5,237.5C 188.492,237.672 189.158,237.338 189.5,236.5C 190.167,236.5 190.5,236.167 190.5,235.5C 191.492,235.672 192.158,235.338 192.5,234.5C 193.492,234.672 194.158,234.338 194.5,233.5C 195.167,233.5 195.5,233.167 195.5,232.5C 196.492,232.672 197.158,232.338 197.5,231.5C 198.167,231.5 198.5,231.167 198.5,230.5C 199.492,230.672 200.158,230.338 200.5,229.5C 201.167,229.5 201.5,229.167 201.5,228.5C 202.492,228.672 203.158,228.338 203.5,227.5C 205.027,227.573 206.027,226.906 206.5,225.5C 208.027,225.573 209.027,224.906 209.5,223.5C 210.167,223.5 210.5,223.167 210.5,222.5C 211.492,222.672 212.158,222.338 212.5,221.5C 213.167,221.5 213.5,221.167 213.5,220.5C 215.027,220.573 216.027,219.906 216.5,218.5C 217.167,218.5 217.5,218.167 217.5,217.5C 219.027,217.573 220.027,216.906 220.5,215.5C 221.167,215.5 221.5,215.167 221.5,214.5C 222.167,214.5 222.5,214.167 222.5,213.5C 224.404,213.262 225.738,212.262 226.5,210.5C 227.167,210.5 227.5,210.167 227.5,209.5C 228.167,209.5 228.5,209.167 228.5,208.5C 229.167,208.5 229.5,208.167 229.5,207.5C 230.167,207.5 230.5,207.167 230.5,206.5C 231.906,206.027 232.573,205.027 232.5,203.5C 234.104,202.713 234.771,201.38 234.5,199.5C 235.404,198.791 235.737,197.791 235.5,196.5C 236.451,195.081 236.784,193.415 236.5,191.5C 237.461,189.735 237.795,187.735 237.5,185.5C 238.451,184.081 238.784,182.415 238.5,180.5C 240.368,176.112 241.368,171.278 241.5,166C 241.304,164.122 240.971,162.288 240.5,160.5C 240.667,146.829 240.5,133.163 240,119.5C 239.501,125.157 239.334,130.824 239.5,136.5C 238.074,135.198 236.741,133.698 235.5,132C 237.241,127.435 238.241,122.601 238.5,117.5C 239.479,114.375 239.813,111.042 239.5,107.5C 240.152,106.551 240.486,105.385 240.5,104C 240.392,102.319 239.725,101.152 238.5,100.5C 238.795,98.2646 238.461,96.2646 237.5,94.5C 237.795,92.2646 237.461,90.2646 236.5,88.5C 236.784,86.5853 236.451,84.9187 235.5,83.5C 235.737,82.209 235.404,81.209 234.5,80.5C 234.771,78.6203 234.104,77.287 232.5,76.5C 232.573,74.9731 231.906,73.9731 230.5,73.5C 229.833,73.5 229.5,73.1667 229.5,72.5C 228.833,72.5 228.5,72.1667 228.5,71.5C 227.833,71.5 227.5,71.1667 227.5,70.5C 226.833,70.5 226.5,70.1667 226.5,69.5C 225.738,67.7376 224.404,66.7376 222.5,66.5C 221.833,66.5 221.5,66.1667 221.5,65.5C 220.833,65.5 220.5,65.1667 220.5,64.5C 220.027,63.0937 219.027,62.427 217.5,62.5C 216.833,62.5 216.5,62.1667 216.5,61.5C 216.027,60.0937 215.027,59.427 213.5,59.5C 212.833,59.5 212.5,59.1667 212.5,58.5C 212.158,57.6618 211.492,57.3284 210.5,57.5C 209.833,57.5 209.5,57.1667 209.5,56.5C 209.027,55.0937 208.027,54.427 206.5,54.5C 206.158,53.6618 205.492,53.3284 204.5,53.5C 203.833,53.5 203.5,53.1667 203.5,52.5C 203.158,51.6618 202.492,51.3284 201.5,51.5C 200.833,51.5 200.5,51.1667 200.5,50.5C 200.158,49.6618 199.492,49.3284 198.5,49.5C 197.833,49.5 197.5,49.1667 197.5,48.5C 197.158,47.6618 196.492,47.3284 195.5,47.5C 194.833,47.5 194.5,47.1667 194.5,46.5C 194.158,45.6618 193.492,45.3284 192.5,45.5C 192.158,44.6618 191.492,44.3284 190.5,44.5C 189.833,44.5 189.5,44.1667 189.5,43.5C 189.158,42.6618 188.492,42.3284 187.5,42.5C 187.158,41.6618 186.492,41.3284 185.5,41.5C 184.833,41.5 184.5,41.1667 184.5,40.5C 184.158,39.6618 183.492,39.3284 182.5,39.5C 182.158,38.6618 181.492,38.3284 180.5,38.5C 180.158,37.6618 179.492,37.3284 178.5,37.5C 177.833,37.5 177.5,37.1667 177.5,36.5C 177.158,35.6618 176.492,35.3284 175.5,35.5C 175.158,34.6618 174.492,34.3284 173.5,34.5C 173.158,33.6618 172.492,33.3284 171.5,33.5C 171.158,32.6618 170.492,32.3284 169.5,32.5C 168.833,31.1667 168.167,31.1667 167.5,32.5C 166.167,32.5 165.5,31.8333 165.5,30.5C 165.167,29.1667 164.833,29.1667 164.5,30.5C 162.131,30.8511 159.797,31.0178 157.5,31C 157.034,29.7012 157.034,28.2012 157.5,26.5C 157.5,26.1667 157.5,25.8333 157.5,25.5C 158.209,24.596 159.209,24.2627 160.5,24.5C 160.5,22.1667 160.5,19.8333 160.5,17.5C 159.167,17.5 157.833,17.5 156.5,17.5C 156.741,20.999 155.908,21.3323 154,18.5C 153.035,20.2603 151.868,20.5937 150.5,19.5C 153.493,13.8263 152.16,12.493 146.5,15.5C 147.559,17.5336 148.559,19.5336 149.5,21.5C 148.833,21.5 148.167,21.5 147.5,21.5C 146.791,20.596 145.791,20.2627 144.5,20.5C 144.158,19.6618 143.492,19.3284 142.5,19.5C 141.791,18.596 140.791,18.2627 139.5,18.5C 139.158,17.6618 138.492,17.3284 137.5,17.5C 136.791,16.596 135.791,16.2627 134.5,16.5C 133.432,15.5655 132.099,15.2322 130.5,15.5C 126.5,14.1667 122.5,14.1667 118.5,15.5C 116.901,15.2322 115.568,15.5655 114.5,16.5C 113.209,16.2627 112.209,16.596 111.5,17.5C 110.508,17.3284 109.842,17.6618 109.5,18.5C 108.209,18.2627 107.209,18.596 106.5,19.5C 105.508,19.3284 104.842,19.6618 104.5,20.5C 103.209,20.2627 102.209,20.596 101.5,21.5C 100.508,21.3284 99.8417,21.6618 99.5,22.5C 98.5084,22.3284 97.8417,22.6618 97.5,23.5C 96.5084,23.3284 95.8417,23.6618 95.5,24.5C 94.5084,24.3284 93.8417,24.6618 93.5,25.5C 93.1788,27.0481 92.1788,27.7148 90.5,27.5C 89.8333,26.1667 89.1667,26.1667 88.5,27.5C 87.5084,27.3284 86.8417,27.6618 86.5,28.5C 85.8333,28.5 85.5,28.8333 85.5,29.5C 84.9653,31.4456 83.632,32.4456 81.5,32.5C 80.8333,31.1667 80.1667,31.1667 79.5,32.5C 78.5084,32.3284 77.8417,32.6618 77.5,33.5C 76.5084,33.3284 75.8417,33.6618 75.5,34.5C 74.5084,34.3284 73.8417,34.6618 73.5,35.5C 72.5084,35.3284 71.8417,35.6618 71.5,36.5C 70.8333,36.5 70.5,36.8333 70.5,37.5C 69.5084,37.3284 68.8417,37.6618 68.5,38.5C 67.5084,38.3284 66.8417,38.6618 66.5,39.5C 65.5084,39.3284 64.8417,39.6618 64.5,40.5C 63.8333,40.5 63.5,40.8333 63.5,41.5C 62.5084,41.3284 61.8417,41.6618 61.5,42.5C 60.5084,42.3284 59.8417,42.6618 59.5,43.5C 58.8333,43.5 58.5,43.8333 58.5,44.5C 57.5084,44.3284 56.8417,44.6618 56.5,45.5C 55.5084,45.3284 54.8417,45.6618 54.5,46.5C 53.8333,46.5 53.5,46.8333 53.5,47.5C 52.5084,47.3284 51.8417,47.6618 51.5,48.5C 50.8333,48.5 50.5,48.8333 50.5,49.5C 49.5084,49.3284 48.8417,49.6618 48.5,50.5C 47.8333,50.5 47.5,50.8333 47.5,51.5C 46.5084,51.3284 45.8417,51.6618 45.5,52.5C 43.9731,52.427 42.9731,53.0937 42.5,54.5C 40.9731,54.427 39.9731,55.0937 39.5,56.5C 38.8333,56.5 38.5,56.8333 38.5,57.5C 37.5084,57.3284 36.8417,57.6618 36.5,58.5C 35.8333,58.5 35.5,58.8333 35.5,59.5C 33.9731,59.427 32.9731,60.0937 32.5,61.5C 31.8333,61.5 31.5,61.8333 31.5,62.5C 29.9731,62.427 28.9731,63.0937 28.5,64.5C 27.8333,64.5 27.5,64.8333 27.5,65.5C 26.8333,65.5 26.5,65.8333 26.5,66.5C 24.5956,66.7376 23.2623,67.7376 22.5,69.5C 21.8333,69.5 21.5,69.8333 21.5,70.5C 20.8333,70.5 20.5,70.8333 20.5,71.5C 19.8333,71.5 19.5,71.8333 19.5,72.5C 18.8333,72.5 18.5,72.8333 18.5,73.5C 17.0937,73.9731 16.427,74.9731 16.5,76.5C 14.8958,77.287 14.2291,78.6203 14.5,80.5C 13.596,81.209 13.2627,82.209 13.5,83.5C 12.5489,84.9187 12.2155,86.5853 12.5,88.5C 11.5386,90.2646 11.2053,92.2646 11.5,94.5C 10.5386,96.2646 10.2053,98.2646 10.5,100.5C 9.56552,101.568 9.23219,102.901 9.5,104.5C 9.5,106.833 9.5,109.167 9.5,111.5C 8.53178,113.607 8.19845,115.941 8.5,118.5C 8.5,121.5 8.5,124.5 8.5,127.5C 7.67331,122.349 7.17331,117.016 7,111.5C 5.98259,114.028 4.81592,114.028 3.5,111.5C 3.46695,112.989 2.96695,114.322 2,115.5C 1.32924,114.748 0.495904,114.414 -0.5,114.5C -0.5,111.5 -0.5,108.5 -0.5,105.5C 0.717384,95.8552 2.55072,86.1886 5,76.5C 8.6815,68.4833 14.1815,61.9833 21.5,57C 46.4688,38.075 73.4688,22.4083 102.5,10C 109.567,7.03206 116.9,5.19873 124.5,4.5C 137.84,6.55775 150.507,10.7244 162.5,17C 188.195,29.8377 212.195,45.171 234.5,63C 243.422,71.9215 247.756,82.7548 247.5,95.5 Z M 45.5,52.5 C 45.0269,53.9063 44.0269,54.573 42.5,54.5C 42.9731,53.0937 43.9731,52.427 45.5,52.5 Z M 42.5,54.5 C 42.0269,55.9063 41.0269,56.573 39.5,56.5C 39.9731,55.0937 40.9731,54.427 42.5,54.5 Z M 206.5,54.5 C 208.027,54.427 209.027,55.0937 209.5,56.5C 207.973,56.573 206.973,55.9063 206.5,54.5 Z M 35.5,59.5 C 35.0269,60.9063 34.0269,61.573 32.5,61.5C 32.9731,60.0937 33.9731,59.427 35.5,59.5 Z M 213.5,59.5 C 215.027,59.427 216.027,60.0937 216.5,61.5C 214.973,61.573 213.973,60.9063 213.5,59.5 Z M 31.5,62.5 C 31.0269,63.9063 30.0269,64.573 28.5,64.5C 28.9731,63.0937 29.9731,62.427 31.5,62.5 Z M 217.5,62.5 C 219.027,62.427 220.027,63.0937 220.5,64.5C 218.973,64.573 217.973,63.9063 217.5,62.5 Z M 26.5,66.5 C 25.7377,68.2624 24.4044,69.2624 22.5,69.5C 23.2623,67.7376 24.5956,66.7376 26.5,66.5 Z M 222.5,66.5 C 224.404,66.7376 225.738,67.7376 226.5,69.5C 224.596,69.2624 223.262,68.2624 222.5,66.5 Z M 18.5,73.5 C 18.573,75.0269 17.9063,76.0269 16.5,76.5C 16.427,74.9731 17.0937,73.9731 18.5,73.5 Z M 230.5,73.5 C 231.906,73.9731 232.573,74.9731 232.5,76.5C 231.094,76.0269 230.427,75.0269 230.5,73.5 Z M 16.5,76.5 C 16.3404,78.153 15.6737,79.4863 14.5,80.5C 14.2291,78.6203 14.8958,77.287 16.5,76.5 Z M 232.5,76.5 C 234.104,77.287 234.771,78.6203 234.5,80.5C 233.326,79.4863 232.66,78.153 232.5,76.5 Z"/></g>
<g><path style="opacity:1" fill="#fefdfb" d="M 159.5,82.5 C 159.878,85.0221 160.711,87.3554 162,89.5C 162.5,103.163 162.667,116.829 162.5,130.5C 161.908,133.691 160.741,136.691 159,139.5C 155.198,143.62 151.031,147.12 146.5,150C 155.858,165.876 165.358,181.709 175,197.5C 175.667,199.167 175.667,200.833 175,202.5C 171.185,207.878 166.018,210.378 159.5,210C 147.291,191.084 135.457,171.918 124,152.5C 118.22,151.853 112.387,151.186 106.5,150.5C 105.237,148.971 104.237,147.305 103.5,145.5C 103.5,143.5 103.5,141.5 103.5,139.5C 103.84,137.321 104.84,135.488 106.5,134C 115.833,133.667 125.167,133.333 134.5,133C 137.196,132.31 139.363,130.81 141,128.5C 142.6,117.239 142.933,105.906 142,94.5C 141.392,92.9336 140.558,91.6002 139.5,90.5C 138.486,89.3263 137.153,88.6596 135.5,88.5C 135.5,88.1667 135.5,87.8333 135.5,87.5C 135.03,86.3065 134.03,85.6399 132.5,85.5C 119.678,86.1103 107.012,86.777 94.5,87.5C 93.6674,125.998 93.1674,164.665 93,203.5C 91.8118,204.563 91.3118,205.897 91.5,207.5C 90.8333,207.833 90.1667,208.167 89.5,208.5C 84.5698,208.966 79.9032,208.299 75.5,206.5C 74.3493,162.862 74.1826,119.196 75,75.5C 76.9664,74.2197 78.4664,72.553 79.5,70.5C 99.6625,69.3374 119.996,69.1708 140.5,70C 145.67,71.9467 150.67,74.2801 155.5,77C 157.464,78.451 158.797,80.2843 159.5,82.5 Z"/></g>
<g><path style="opacity:1" fill="#fde9c2" d="M 135.5,87.5 C 121.833,87.5 108.167,87.5 94.5,87.5C 107.012,86.777 119.678,86.1103 132.5,85.5C 134.03,85.6399 135.03,86.3065 135.5,87.5 Z"/></g>
<g><path style="opacity:1" fill="#daa46b" d="M 94.5,87.5 C 108.167,87.5 121.833,87.5 135.5,87.5C 135.5,87.8333 135.5,88.1667 135.5,88.5C 121.754,88.1853 108.088,88.5187 94.5,89.5C 94.5,88.8333 94.5,88.1667 94.5,87.5 Z"/></g>
<g><path style="opacity:1" fill="#faebd1" d="M 94.5,87.5 C 94.5,88.1667 94.5,88.8333 94.5,89.5C 94.5,127.5 94.5,165.5 94.5,203.5C 93.8333,204.833 93.1667,206.167 92.5,207.5C 92.1667,207.5 91.8333,207.5 91.5,207.5C 91.3118,205.897 91.8118,204.563 93,203.5C 93.1674,164.665 93.6674,125.998 94.5,87.5 Z"/></g>
<g><path style="opacity:1" fill="#e09a3e" d="M 73.5,76.5 C 73.1774,119.876 73.5108,163.209 74.5,206.5C 73.8826,206.389 73.3826,206.056 73,205.5C 72.1686,162.331 72.3353,119.331 73.5,76.5 Z"/></g>
<g><path style="opacity:1" fill="#f5e6c4" d="M 79.5,70.5 C 78.4664,72.553 76.9664,74.2197 75,75.5C 74.1826,119.196 74.3493,162.862 75.5,206.5C 75.1667,206.5 74.8333,206.5 74.5,206.5C 73.5108,163.209 73.1774,119.876 73.5,76.5C 74.5,73.5 76.5,71.5 79.5,70.5 Z"/></g>
<g><path style="opacity:0.8" fill="#d2965e" d="M 247.5,95.5 C 248.301,97.0418 248.634,98.7085 248.5,100.5C 245.028,99.4228 244.695,97.7561 247.5,95.5 Z"/></g>
<g><path style="opacity:1" fill="#e59948" d="M 135.5,88.5 C 137.153,88.6596 138.486,89.3263 139.5,90.5C 124.999,89.9049 110.332,89.9049 95.5,90.5C 95.8318,128.337 95.4985,166.004 94.5,203.5C 94.5,165.5 94.5,127.5 94.5,89.5C 108.088,88.5187 121.754,88.1853 135.5,88.5 Z"/></g>
<g><path style="opacity:1" fill="#fdeed6" d="M 159.5,82.5 C 161.41,83.9746 162.576,85.9746 163,88.5C 163.827,102.673 163.661,116.673 162.5,130.5C 162.667,116.829 162.5,103.163 162,89.5C 160.711,87.3554 159.878,85.0221 159.5,82.5 Z"/></g>
<g><path style="opacity:0.02" fill="#d89552" d="M 11.5,94.5 C 11.8333,94.5 12.1667,94.5 12.5,94.5C 13.1031,99.6186 12.4364,104.285 10.5,108.5C 10.7678,106.901 10.4345,105.568 9.5,104.5C 9.23219,102.901 9.56552,101.568 10.5,100.5C 11.7765,101.317 12.1099,99.3167 11.5,94.5 Z"/></g>
<g><path style="opacity:0.376" fill="#de9354" d="M 238.5,100.5 C 239.725,101.152 240.392,102.319 240.5,104C 240.486,105.385 240.152,106.551 239.5,107.5C 238.955,103.828 238.622,104.162 238.5,108.5C 237.624,108.631 236.957,108.298 236.5,107.5C 237.246,106.264 237.579,104.93 237.5,103.5C 238.404,102.791 238.737,101.791 238.5,100.5 Z"/></g>
<g><path style="opacity:0.02" fill="#d29757" d="M 9.5,111.5 C 9.20528,113.735 9.53862,115.735 10.5,117.5C 10.815,121.371 10.4816,125.038 9.5,128.5C 9.81277,124.958 9.47944,121.625 8.5,118.5C 8.19845,115.941 8.53178,113.607 9.5,111.5 Z"/></g>
<g><path style="opacity:1" fill="#d99b5a" d="M 103.5,139.5 C 103.5,141.5 103.5,143.5 103.5,145.5C 101.084,143.295 101.084,141.295 103.5,139.5 Z"/></g>
<g><path style="opacity:0.018" fill="#d59653" d="M 9.5,150.5 C 10.4834,154.298 10.8168,158.298 10.5,162.5C 9.53178,164.607 9.19845,166.941 9.5,169.5C 8.27493,168.848 7.60826,167.681 7.5,166C 7.69615,164.122 8.02949,162.288 8.5,160.5C 9.47944,157.375 9.81277,154.042 9.5,150.5 Z"/></g>
<g><path style="opacity:0.024" fill="#d7974b" d="M 239.5,149.5 C 239.185,153.371 239.518,157.038 240.5,160.5C 240.971,162.288 241.304,164.122 241.5,166C 241.368,171.278 240.368,176.112 238.5,180.5C 238.5,179.167 238.5,177.833 238.5,176.5C 238.5,176.167 238.5,175.833 238.5,175.5C 239.833,171.167 239.833,166.833 238.5,162.5C 238.182,157.968 238.515,153.634 239.5,149.5 Z"/></g>
<g><path style="opacity:1" fill="#e99233" d="M -0.5,167.5 C 0.5,167.5 1.5,167.5 2.5,167.5C 2.21614,170.777 2.54948,173.943 3.5,177C 2.69194,177.308 2.02527,177.808 1.5,178.5C 2.31456,183.198 3.31456,187.865 4.5,192.5C 9.02111,192.255 11.0211,189.922 10.5,185.5C 10.8333,185.5 11.1667,185.5 11.5,185.5C 11.2053,187.735 11.5386,189.735 12.5,191.5C 12.2155,193.415 12.5489,195.081 13.5,196.5C 13.2627,197.791 13.596,198.791 14.5,199.5C 14.2291,201.38 14.8958,202.713 16.5,203.5C 16.427,205.027 17.0937,206.027 18.5,206.5C 19.1667,206.5 19.5,206.833 19.5,207.5C 20.1667,207.5 20.5,207.833 20.5,208.5C 21.1667,208.5 21.5,208.833 21.5,209.5C 22.1667,209.5 22.5,209.833 22.5,210.5C 23.2623,212.262 24.5956,213.262 26.5,213.5C 27.1667,213.5 27.5,213.833 27.5,214.5C 28.1667,214.5 28.5,214.833 28.5,215.5C 28.9731,216.906 29.9731,217.573 31.5,217.5C 32.1667,217.5 32.5,217.833 32.5,218.5C 32.9731,219.906 33.9731,220.573 35.5,220.5C 36.1667,220.5 36.5,220.833 36.5,221.5C 36.8417,222.338 37.5084,222.672 38.5,222.5C 39.1667,222.5 39.5,222.833 39.5,223.5C 39.8417,224.338 40.5084,224.672 41.5,224.5C 42.1667,224.5 42.5,224.833 42.5,225.5C 42.8417,226.338 43.5084,226.672 44.5,226.5C 45.1667,226.5 45.5,226.833 45.5,227.5C 45.8417,228.338 46.5084,228.672 47.5,228.5C 48.1667,228.5 48.5,228.833 48.5,229.5C 48.8417,230.338 49.5084,230.672 50.5,230.5C 51.1667,230.5 51.5,230.833 51.5,231.5C 51.8417,232.338 52.5084,232.672 53.5,232.5C 54.1667,232.5 54.5,232.833 54.5,233.5C 54.8417,234.338 55.5084,234.672 56.5,234.5C 56.8417,235.338 57.5084,235.672 58.5,235.5C 59.1667,235.5 59.5,235.833 59.5,236.5C 59.8417,237.338 60.5084,237.672 61.5,237.5C 61.8417,238.338 62.5084,238.672 63.5,238.5C 64.1667,238.5 64.5,238.833 64.5,239.5C 64.8417,240.338 65.5084,240.672 66.5,240.5C 66.8417,241.338 67.5084,241.672 68.5,241.5C 68.8417,242.338 69.5084,242.672 70.5,242.5C 70.8333,243.833 71.1667,243.833 71.5,242.5C 72.4916,242.328 73.1583,242.662 73.5,243.5C 72.1667,243.833 72.1667,244.167 73.5,244.5C 73.8417,245.338 74.5084,245.672 75.5,245.5C 75.8417,246.338 76.5084,246.672 77.5,246.5C 77.8417,247.338 78.5084,247.672 79.5,247.5C 79.8417,248.338 80.5084,248.672 81.5,248.5C 81.8333,249.833 82.1667,249.833 82.5,248.5C 83.8221,248.33 84.9887,248.663 86,249.5C 88.1734,246.723 88.6734,246.89 87.5,250C 88.756,250.417 89.4226,251.25 89.5,252.5C 89.5,252.833 89.5,253.167 89.5,253.5C 87.2776,253.559 86.2776,254.725 86.5,257C 86.8837,259.521 87.8837,261.688 89.5,263.5C 62.3086,251.463 37.3086,235.963 14.5,217C 10.5554,213.054 7.38873,208.554 5,203.5C 2.55072,193.811 0.717384,184.145 -0.5,174.5C -0.5,172.167 -0.5,169.833 -0.5,167.5 Z"/></g>
<g><path style="opacity:1" fill="#faecd2" d="M 75.5,206.5 C 79.9032,208.299 84.5698,208.966 89.5,208.5C 86.3752,209.479 83.0419,209.813 79.5,209.5C 77.5956,209.262 76.2623,208.262 75.5,206.5 Z"/></g>
<g><path style="opacity:1" fill="#ea9f54" d="M 91.5,207.5 C 91.8333,207.5 92.1667,207.5 92.5,207.5C 92.1961,208.15 91.8627,208.817 91.5,209.5C 87.3507,210.809 83.3507,210.809 79.5,209.5C 83.0419,209.813 86.3752,209.479 89.5,208.5C 90.1667,208.167 90.8333,207.833 91.5,207.5 Z"/></g>
<g><path style="opacity:0.576" fill="#da9454" d="M 134.5,262.5 C 134.5,262.833 134.5,263.167 134.5,263.5C 132.901,263.232 131.568,263.566 130.5,264.5C 129.833,264.5 129.167,264.5 128.5,264.5C 128.415,263.005 129.081,262.005 130.5,261.5C 131.736,262.246 133.07,262.579 134.5,262.5 Z"/></g>
</svg>
